<svg xmlns="http://www.w3.org/2000/svg" version="1.1" style="font-family:Lato, &#x27;Helvetica Neue&#x27;, Helvetica, Arial, sans-serif;font-size:18px;background-color:white;text-rendering:optimizeLegibility;-webkit-font-smoothing:antialiased" width="850" height="600" viewBox="0 0 850 600"><g class="HeaderView"><g transform="translate(774, 15) scale(0.29)"><svg width="210" height="120" viewBox="0 0 210 120" fill="none" xmlns="http://www.w3.org/2000/svg">
<g clip-path="url(#clip0)">
  <path d="M0 0h210v107.89H0V0z" fill="#002147" />
  <path
    d="M40.98 32.25c0 2.36-.38 4.53-1.12 6.51a14.26 14.26 0 01-8.1 8.4c-1.9.78-4.02 1.17-6.34 1.17-2.31 0-4.42-.39-6.33-1.17a14.31 14.31 0 01-8.08-8.4 18.29 18.29 0 01-1.12-6.51c0-2.36.38-4.53 1.12-6.5.75-1.97 1.8-3.67 3.17-5.1 1.37-1.43 3-2.55 4.9-3.34 1.92-.8 4.03-1.19 6.34-1.19 2.32 0 4.43.4 6.34 1.19 1.92.8 3.56 1.9 4.93 3.34a14.87 14.87 0 013.17 5.1 18.1 18.1 0 011.12 6.5zm-4.38 0c0-1.94-.26-3.68-.8-5.22a10.91 10.91 0 00-2.24-3.89 9.68 9.68 0 00-3.52-2.46 11.95 11.95 0 00-4.62-.86c-1.68 0-3.21.28-4.6.86a9.88 9.88 0 00-3.54 2.46 10.91 10.91 0 00-2.24 3.9c-.53 1.53-.8 3.27-.8 5.2 0 1.94.27 3.68.8 5.22a11.17 11.17 0 002.24 3.9 10.01 10.01 0 003.55 2.44c1.38.56 2.9.83 4.6.83 1.7 0 3.24-.27 4.61-.83a9.8 9.8 0 003.52-2.44 11.17 11.17 0 002.25-3.9c.53-1.54.8-3.28.8-5.21zm26.22-6.54V48H60.5c-.56 0-.9-.27-1.05-.81l-.31-2.4a12.45 12.45 0 01-3.26 2.6c-1.2.64-2.58.96-4.13.96-1.22 0-2.3-.2-3.24-.6a6.52 6.52 0 01-2.33-1.7 7.37 7.37 0 01-1.43-2.67c-.3-1.04-.46-2.2-.46-3.45V25.7h3.91v14.22c0 1.68.38 2.99 1.15 3.91.77.93 1.96 1.39 3.54 1.39 1.16 0 2.24-.27 3.23-.82a10.42 10.42 0 002.8-2.28V25.7h3.91zm8.61 4.47a9.94 9.94 0 012.6-3.56 5.64 5.64 0 013.76-1.3c.47 0 .92.05 1.34.15.44.1.83.27 1.17.49L80 28.88c-.09.37-.3.55-.66.55-.2 0-.5-.04-.9-.13a6.21 6.21 0 00-3.24.18c-.54.2-1.03.5-1.47.92-.42.4-.81.9-1.17 1.5-.33.58-.64 1.26-.92 2.02V48h-3.94V25.71h2.25c.42 0 .72.08.88.25.16.16.27.44.33.83l.26 3.39zm61.16-13.7L122.75 48h-3.82l-7.99-24.05a21.95 21.95 0 01-.42-1.58 38.36 38.36 0 01-.44 1.58L102.05 48h-3.83L88.4 16.47h3.54c.38 0 .7.1.95.29.26.2.43.43.5.73l6.52 21.9c.1.4.2.83.28 1.28.1.46.2.94.29 1.46l.3-1.46c.12-.47.25-.9.38-1.27l7.41-21.91c.1-.25.26-.48.51-.69.27-.22.58-.33.95-.33h1.23c.38 0 .69.1.92.29.24.2.41.43.53.73l7.4 21.9a28.4 28.4 0 01.68 2.62 29.52 29.52 0 01.52-2.61l6.54-21.91c.07-.27.23-.5.48-.7.27-.21.58-.32.95-.32h3.32zm9.35 8.88c1.63 0 3.1.27 4.4.82a9.43 9.43 0 015.46 5.94c.5 1.4.74 2.98.74 4.73 0 1.76-.25 3.34-.74 4.75a9.43 9.43 0 01-5.46 5.92c-1.3.52-2.77.79-4.4.79-1.64 0-3.12-.27-4.44-.8a9.42 9.42 0 01-3.35-2.3c-.92-1-1.63-2.2-2.13-3.61-.49-1.41-.73-3-.73-4.75s.24-3.33.73-4.73c.5-1.43 1.2-2.64 2.13-3.63.93-1 2.04-1.77 3.35-2.31 1.32-.55 2.8-.82 4.44-.82zm0 19.89c2.2 0 3.84-.73 4.93-2.2 1.08-1.48 1.63-3.54 1.63-6.18 0-2.66-.55-4.72-1.63-6.2-1.09-1.49-2.73-2.23-4.93-2.23-1.12 0-2.09.2-2.93.57-.82.39-1.5.94-2.06 1.65-.55.72-.96 1.61-1.24 2.67-.26 1.04-.4 2.22-.4 3.54 0 2.64.55 4.7 1.64 6.18 1.1 1.47 2.76 2.2 4.99 2.2zm17.97-15.07a9.94 9.94 0 012.6-3.56 5.64 5.64 0 013.76-1.3c.47 0 .91.05 1.34.15.44.1.83.27 1.16.49l-.28 2.92c-.09.37-.31.55-.66.55-.2 0-.5-.04-.9-.13a6.2 6.2 0 00-3.24.18c-.54.2-1.03.5-1.47.92-.43.4-.82.9-1.17 1.5a13.1 13.1 0 00-.92 2.02V48h-3.94V25.71h2.24c.43 0 .72.08.88.25.17.16.28.44.33.83l.27 3.39zm15.04-14.59V48h-3.92V15.6h3.92zm19.55 15.43a6.22 6.22 0 00-2.38-2.05 6.7 6.7 0 00-2.86-.6c-2.07 0-3.66.75-4.77 2.23-1.12 1.48-1.68 3.6-1.68 6.33 0 1.46.13 2.7.38 3.74a7.29 7.29 0 001.1 2.56 4.35 4.35 0 001.78 1.45c.7.3 1.5.46 2.4.46 1.29 0 2.41-.3 3.36-.88a9.6 9.6 0 002.67-2.49V31.02zm3.91-15.43V48h-2.33c-.56 0-.9-.27-1.06-.81l-.35-2.71a12.13 12.13 0 01-3.25 2.77 8.28 8.28 0 01-4.23 1.06 7.31 7.31 0 01-6.14-2.9c-.73-.96-1.3-2.15-1.69-3.57a18.35 18.35 0 01.07-9.48 11.29 11.29 0 011.89-3.7 8.7 8.7 0 017.06-3.34 7.96 7.96 0 016.12 2.62V15.59h3.91zM46.61 70.71V93H42.7V70.71h3.91zm.84-7c0 .39-.08.75-.24 1.09-.15.32-.35.61-.62.88-.25.25-.55.44-.9.59a2.67 2.67 0 01-2.16 0 2.9 2.9 0 01-1.45-1.47 2.67 2.67 0 010-2.16c.15-.35.35-.65.6-.9.25-.27.53-.47.85-.62a2.67 2.67 0 012.16 0c.35.15.65.35.9.62.27.25.47.55.62.9.16.34.24.7.24 1.08zm7.97 10.24c.49-.54 1-1.04 1.54-1.48a9.85 9.85 0 013.66-1.84 8.96 8.96 0 015.43.35c.94.4 1.72.97 2.33 1.71.63.74 1.11 1.62 1.43 2.67.32 1.04.49 2.19.49 3.45V93h-3.94V78.81c0-1.69-.4-3-1.17-3.92-.76-.93-1.93-1.4-3.5-1.4-1.15 0-2.24.27-3.25.83-1 .56-1.92 1.31-2.77 2.27V93h-3.94V70.71h2.35c.56 0 .9.28 1.04.82l.3 2.42zm57.7 3.3c0 2.36-.37 4.5-1.11 6.44a14.3 14.3 0 01-3.17 4.98c-1.37 1.37-3 2.45-4.93 3.2-1.9.76-4.02 1.13-6.33 1.13H85.8V61.47h11.77c2.31 0 4.42.39 6.33 1.15a13.8 13.8 0 018.1 8.18 17.75 17.75 0 011.12 6.45zm-4.37 0c0-1.94-.26-3.67-.8-5.2a10.94 10.94 0 00-2.23-3.87 9.57 9.57 0 00-3.53-2.42 12.23 12.23 0 00-4.61-.83h-7.5v24.62h7.5c1.7 0 3.24-.28 4.61-.84a9.7 9.7 0 003.53-2.4 10.94 10.94 0 002.24-3.87c.53-1.53.8-3.26.8-5.2zm19.8 5.72c-1.8.06-3.34.2-4.62.44-1.26.22-2.3.51-3.1.88-.8.36-1.37.8-1.74 1.3-.35.5-.53 1.05-.53 1.67 0 .58.1 1.1.3 1.52a3 3 0 00.76 1.05c.34.27.73.46 1.17.6.45.11.94.17 1.45.17a7.28 7.28 0 003.5-.81 11.95 11.95 0 002.82-2.2v-4.62zm-12.65-9.11a12.73 12.73 0 013.98-2.66c1.43-.59 3-.88 4.73-.88 1.25 0 2.36.2 3.33.61a6.81 6.81 0 013.94 4.38c.33 1.04.5 2.19.5 3.43V93h-1.74a1.8 1.8 0 01-.88-.18c-.2-.13-.36-.38-.48-.74l-.44-2.12c-.59.55-1.16 1.03-1.72 1.46a9.48 9.48 0 01-3.74 1.7c-.69.15-1.46.23-2.3.23-.87 0-1.69-.12-2.45-.35a5.34 5.34 0 01-3.34-2.93 6.64 6.64 0 01-.49-2.64c0-.88.25-1.72.73-2.53a6.33 6.33 0 012.35-2.17c1.09-.63 2.5-1.15 4.25-1.54 1.75-.41 3.89-.65 6.42-.7v-1.75c0-1.73-.37-3.03-1.12-3.91-.75-.9-1.84-1.34-3.28-1.34-.97 0-1.78.12-2.44.37-.64.23-1.2.5-1.7.81l-1.23.82c-.33.23-.67.35-1 .35-.27 0-.5-.07-.69-.2a2.1 2.1 0 01-.48-.53l-.7-1.25zm27.67 19.5c-1.76 0-3.12-.5-4.07-1.48-.94-.98-1.41-2.4-1.41-4.25V74h-2.68a.9.9 0 01-.6-.2c-.16-.14-.24-.36-.24-.66v-1.56l3.65-.46.9-6.89c.05-.22.14-.4.29-.52a.88.88 0 01.62-.22H142v7.67h6.44V74h-6.44v13.38c0 .94.22 1.63.68 2.09.45.45 1.04.68 1.76.68a3.21 3.21 0 001.85-.53l.55-.35c.16-.12.3-.18.41-.18.2 0 .4.13.55.38l1.15 1.87a7.45 7.45 0 01-2.44 1.5c-.96.35-1.94.52-2.95.52zm19.68-10.4c-1.8.07-3.34.21-4.62.45-1.26.22-2.3.51-3.1.88-.8.36-1.37.8-1.74 1.3-.35.5-.53 1.05-.53 1.67 0 .58.1 1.1.3 1.52.18.42.44.77.76 1.05.34.27.73.46 1.17.6.45.11.94.17 1.45.17a7.3 7.3 0 003.5-.81 12.04 12.04 0 002.82-2.2v-4.62zm-12.65-9.1a12.72 12.72 0 013.99-2.66c1.42-.59 3-.88 4.72-.88 1.25 0 2.36.2 3.33.61a6.81 6.81 0 013.94 4.38c.33 1.04.5 2.19.5 3.43V93h-1.74a1.8 1.8 0 01-.88-.18c-.2-.13-.36-.38-.48-.74l-.44-2.12c-.59.55-1.16 1.03-1.72 1.46a9.48 9.48 0 01-3.74 1.7c-.69.15-1.46.23-2.3.23-.87 0-1.69-.12-2.45-.35a5.33 5.33 0 01-3.34-2.93 6.62 6.62 0 01-.49-2.64c0-.88.25-1.72.73-2.53a6.33 6.33 0 012.35-2.17c1.09-.63 2.5-1.15 4.25-1.54 1.74-.41 3.89-.65 6.42-.7v-1.75c0-1.73-.37-3.03-1.12-3.91-.75-.9-1.84-1.34-3.28-1.34-.97 0-1.78.12-2.44.37-.64.23-1.2.5-1.7.81-.46.3-.87.57-1.22.82-.34.23-.68.35-1.02.35-.26 0-.49-.07-.68-.2-.19-.14-.35-.32-.48-.53l-.7-1.25z"
    fill="#fff"
  />
  <path fill="#D42B21" d="M0 106.79h210V120H0z" />
</g>
<defs>
  <clipPath id="clip0"><path fill="#fff" d="M0 0h210v120H0z" /></clipPath>
</defs>
</svg></g><a href="https://ourworldindata.org/grapher/Demographic-Transition-Mitchell?time=1749..2010&amp;country=RUS-0~RUS-1" style="font-family:&quot;Playfair Display&quot;, Georgia, &quot;Times New Roman&quot;, serif" target="_blank"><text font-size="21.60" x="15.0" y="32.3" fill="#555"><tspan x="15" y="32.279999999999994">The Demographic Transition: Decline of the death rate followed by a</tspan><tspan x="15" y="53.87999999999999">decline of the birth rate, 1861 to 2010</tspan></text></a><text font-size="14.40" x="15.0" y="74.7" fill="#666"><tspan x="15" y="74.72">Both the birth and death rate are expressed per 1,000 of the population</tspan></text></g><g class="LineChart"><defs><clipPath id="boundsClip-20"><rect x="28.144000000000005" y="0" width="830" height="921.8000000000001"></rect></clipPath></defs><g class="DualAxisView"><g class="HorizontalAxis"><line x1="38.1" y1="535.3000000000001" x2="38.1" y2="539.3000000000001" stroke="#ccc"></line><line x1="119.7" y1="535.3000000000001" x2="119.7" y2="539.3000000000001" stroke="#ccc"></line><line x1="205.6" y1="535.3000000000001" x2="205.6" y2="539.3000000000001" stroke="#ccc"></line><line x1="291.5" y1="535.3000000000001" x2="291.5" y2="539.3000000000001" stroke="#ccc"></line><line x1="377.4" y1="535.3000000000001" x2="377.4" y2="539.3000000000001" stroke="#ccc"></line><line x1="463.3" y1="535.3000000000001" x2="463.3" y2="539.3000000000001" stroke="#ccc"></line><line x1="549.2" y1="535.3000000000001" x2="549.2" y2="539.3000000000001" stroke="#ccc"></line><line x1="635.1" y1="535.3000000000001" x2="635.1" y2="539.3000000000001" stroke="#ccc"></line><line x1="678.1" y1="535.3000000000001" x2="678.1" y2="539.3000000000001" stroke="#ccc"></line><text x="38.1" y="556.5" fill="#666" text-anchor="middle" font-size="16.2">1861</text><text x="119.7" y="556.5" fill="#666" text-anchor="middle" font-size="16.2">1880</text><text x="205.6" y="556.5" fill="#666" text-anchor="middle" font-size="16.2">1900</text><text x="291.5" y="556.5" fill="#666" text-anchor="middle" font-size="16.2">1920</text><text x="377.4" y="556.5" fill="#666" text-anchor="middle" font-size="16.2">1940</text><text x="463.3" y="556.5" fill="#666" text-anchor="middle" font-size="16.2">1960</text><text x="549.2" y="556.5" fill="#666" text-anchor="middle" font-size="16.2">1980</text><text x="635.1" y="556.5" fill="#666" text-anchor="middle" font-size="16.2">2000</text><text x="678.1" y="556.5" fill="#666" text-anchor="middle" font-size="16.2">2010</text></g><g class="VerticalAxis"><text x="33.14" y="535.3" fill="#666" dominant-baseline="middle" text-anchor="end" font-size="16.2">0</text><text x="33.14" y="452.2" fill="#666" dominant-baseline="middle" text-anchor="end" font-size="16.2">10</text><text x="33.14" y="369.1" fill="#666" dominant-baseline="middle" text-anchor="end" font-size="16.2">20</text><text x="33.14" y="285.9" fill="#666" dominant-baseline="middle" text-anchor="end" font-size="16.2">30</text><text x="33.14" y="202.8" fill="#666" dominant-baseline="middle" text-anchor="end" font-size="16.2">40</text><text x="33.14" y="119.7" fill="#666" dominant-baseline="middle" text-anchor="end" font-size="16.2">50</text></g><g class="AxisGridLines horizontalLines"><line x1="38.14" y1="535.3" x2="678.10" y2="535.3" stroke="#ccc"></line><line x1="38.14" y1="452.2" x2="678.10" y2="452.2" stroke="#d3d3d3" stroke-dasharray="3,2"></line><line x1="38.14" y1="369.1" x2="678.10" y2="369.1" stroke="#d3d3d3" stroke-dasharray="3,2"></line><line x1="38.14" y1="285.9" x2="678.10" y2="285.9" stroke="#d3d3d3" stroke-dasharray="3,2"></line><line x1="38.14" y1="202.8" x2="678.10" y2="202.8" stroke="#d3d3d3" stroke-dasharray="3,2"></line><line x1="38.14" y1="119.7" x2="678.10" y2="119.7" stroke="#d3d3d3" stroke-dasharray="3,2"></line></g></g><g clip-path="url(#boundsClip-20)"><g class="LineLabels" style="cursor:pointer"><g class="legendMark"><rect x="678.095" y="410.55" width="156.905" height="13.5" fill="#fff" opacity="0"></rect><text font-size="13.50" x="682.1" y="421.4" fill="#B13507"><tspan x="682.095" y="421.35">Russia - Death Rate</tspan></text></g><g class="legendMark"><rect x="678.095" y="424.55" width="148.53500000000003" height="13.5" fill="#fff" opacity="0"></rect><text font-size="13.50" x="682.1" y="435.4" fill="#3C4E66"><tspan x="682.095" y="435.35">Russia - Birth Rate</tspan></text></g></g><g class="Lines"><rect x="38" y="96" width="640" height="440" fill="rgba(255,255,255,0)" opacity="0"></rect><g class="key-Russia_0"><path stroke="#3C4E66" stroke-linecap="round" d="M38 122L42 111L47 120L51 96L55 120L64 110L68 130L73 122L77 126L81 111L85 120L90 101L94 108L98 107L103 115L107 123L111 142L116 118L120 122L124 127L128 106L133 115L137 107L141 120L146 128L150 124L154 121L158 106L163 117L167 115L171 153L176 130L180 126L184 119L189 116L193 120L197 131L201 126L206 126L210 137L214 127L219 136L223 131L227 161L231 144L236 141L240 163L244 164L249 160L253 161L257 172L262 177L292 279L296 264L300 258L304 213L309 177L313 164L317 173L322 176L326 167L356 285L360 256L365 214L369 224L373 232L377 276L403 338L420 313L425 311L429 315L433 327L438 314L442 322L446 322L451 324L455 325L459 328L463 328L468 338L472 349L476 359L481 372L485 382L489 384L493 392L498 392L502 394L506 391L511 387L515 387L519 389L524 386L528 385L532 382L536 385L541 384L545 384L549 383L554 382L558 378L562 371L566 372L571 374L575 369L579 371L584 379L592 424L597 435L601 446L605 458L609 460L614 459L618 462L622 464L627 462L631 466L635 464L639 461L644 456L648 451L652 449L657 451L661 449L665 441L670 435L674 432L678 431" fill="none" stroke-width="1.5"></path><g fill="#3C4E66"><circle cx="38" cy="122" r="2"></circle><circle cx="42" cy="111" r="2"></circle><circle cx="47" cy="120" r="2"></circle><circle cx="51" cy="96" r="2"></circle><circle cx="55" cy="120" r="2"></circle><circle cx="64" cy="110" r="2"></circle><circle cx="68" cy="130" r="2"></circle><circle cx="73" cy="122" r="2"></circle><circle cx="77" cy="126" r="2"></circle><circle cx="81" cy="111" r="2"></circle><circle cx="85" cy="120" r="2"></circle><circle cx="90" cy="101" r="2"></circle><circle cx="94" cy="108" r="2"></circle><circle cx="98" cy="107" r="2"></circle><circle cx="103" cy="115" r="2"></circle><circle cx="107" cy="123" r="2"></circle><circle cx="111" cy="142" r="2"></circle><circle cx="116" cy="118" r="2"></circle><circle cx="120" cy="122" r="2"></circle><circle cx="124" cy="127" r="2"></circle><circle cx="128" cy="106" r="2"></circle><circle cx="133" cy="115" r="2"></circle><circle cx="137" cy="107" r="2"></circle><circle cx="141" cy="120" r="2"></circle><circle cx="146" cy="128" r="2"></circle><circle cx="150" cy="124" r="2"></circle><circle cx="154" cy="121" r="2"></circle><circle cx="158" cy="106" r="2"></circle><circle cx="163" cy="117" r="2"></circle><circle cx="167" cy="115" r="2"></circle><circle cx="171" cy="153" r="2"></circle><circle cx="176" cy="130" r="2"></circle><circle cx="180" cy="126" r="2"></circle><circle cx="184" cy="119" r="2"></circle><circle cx="189" cy="116" r="2"></circle><circle cx="193" cy="120" r="2"></circle><circle cx="197" cy="131" r="2"></circle><circle cx="201" cy="126" r="2"></circle><circle cx="206" cy="126" r="2"></circle><circle cx="210" cy="137" r="2"></circle><circle cx="214" cy="127" r="2"></circle><circle cx="219" cy="136" r="2"></circle><circle cx="223" cy="131" r="2"></circle><circle cx="227" cy="161" r="2"></circle><circle cx="231" cy="144" r="2"></circle><circle cx="236" cy="141" r="2"></circle><circle cx="240" cy="163" r="2"></circle><circle cx="244" cy="164" r="2"></circle><circle cx="249" cy="160" r="2"></circle><circle cx="253" cy="161" r="2"></circle><circle cx="257" cy="172" r="2"></circle><circle cx="262" cy="177" r="2"></circle><circle cx="292" cy="279" r="2"></circle><circle cx="296" cy="264" r="2"></circle><circle cx="300" cy="258" r="2"></circle><circle cx="304" cy="213" r="2"></circle><circle cx="309" cy="177" r="2"></circle><circle cx="313" cy="164" r="2"></circle><circle cx="317" cy="173" r="2"></circle><circle cx="322" cy="176" r="2"></circle><circle cx="326" cy="167" r="2"></circle><circle cx="356" cy="285" r="2"></circle><circle cx="360" cy="256" r="2"></circle><circle cx="365" cy="214" r="2"></circle><circle cx="369" cy="224" r="2"></circle><circle cx="373" cy="232" r="2"></circle><circle cx="377" cy="276" r="2"></circle><circle cx="403" cy="338" r="2"></circle><circle cx="420" cy="313" r="2"></circle><circle cx="425" cy="311" r="2"></circle><circle cx="429" cy="315" r="2"></circle><circle cx="433" cy="327" r="2"></circle><circle cx="438" cy="314" r="2"></circle><circle cx="442" cy="322" r="2"></circle><circle cx="446" cy="322" r="2"></circle><circle cx="451" cy="324" r="2"></circle><circle cx="455" cy="325" r="2"></circle><circle cx="459" cy="328" r="2"></circle><circle cx="463" cy="328" r="2"></circle><circle cx="468" cy="338" r="2"></circle><circle cx="472" cy="349" r="2"></circle><circle cx="476" cy="359" r="2"></circle><circle cx="481" cy="372" r="2"></circle><circle cx="485" cy="382" r="2"></circle><circle cx="489" cy="384" r="2"></circle><circle cx="493" cy="392" r="2"></circle><circle cx="498" cy="392" r="2"></circle><circle cx="502" cy="394" r="2"></circle><circle cx="506" cy="391" r="2"></circle><circle cx="511" cy="387" r="2"></circle><circle cx="515" cy="387" r="2"></circle><circle cx="519" cy="389" r="2"></circle><circle cx="524" cy="386" r="2"></circle><circle cx="528" cy="385" r="2"></circle><circle cx="532" cy="382" r="2"></circle><circle cx="536" cy="385" r="2"></circle><circle cx="541" cy="384" r="2"></circle><circle cx="545" cy="384" r="2"></circle><circle cx="549" cy="383" r="2"></circle><circle cx="554" cy="382" r="2"></circle><circle cx="558" cy="378" r="2"></circle><circle cx="562" cy="371" r="2"></circle><circle cx="566" cy="372" r="2"></circle><circle cx="571" cy="374" r="2"></circle><circle cx="575" cy="369" r="2"></circle><circle cx="579" cy="371" r="2"></circle><circle cx="584" cy="379" r="2"></circle><circle cx="592" cy="424" r="2"></circle><circle cx="597" cy="435" r="2"></circle><circle cx="601" cy="446" r="2"></circle><circle cx="605" cy="458" r="2"></circle><circle cx="609" cy="460" r="2"></circle><circle cx="614" cy="459" r="2"></circle><circle cx="618" cy="462" r="2"></circle><circle cx="622" cy="464" r="2"></circle><circle cx="627" cy="462" r="2"></circle><circle cx="631" cy="466" r="2"></circle><circle cx="635" cy="464" r="2"></circle><circle cx="639" cy="461" r="2"></circle><circle cx="644" cy="456" r="2"></circle><circle cx="648" cy="451" r="2"></circle><circle cx="652" cy="449" r="2"></circle><circle cx="657" cy="451" r="2"></circle><circle cx="661" cy="449" r="2"></circle><circle cx="665" cy="441" r="2"></circle><circle cx="670" cy="435" r="2"></circle><circle cx="674" cy="432" r="2"></circle><circle cx="678" cy="431" r="2"></circle></g></g><g class="key-Russia_1"><path stroke="#B13507" stroke-linecap="round" d="M38 241L42 253L47 222L51 214L55 229L64 229L68 205L73 217L77 244L81 220L85 193L90 232L94 243L98 248L103 245L107 249L111 218L116 246L120 235L124 252L128 200L133 224L137 249L141 238L146 259L150 254L154 258L158 240L163 230L167 238L171 195L176 249L180 250L184 240L189 259L193 272L197 259L201 276L206 277L210 269L214 274L219 286L223 287L227 272L231 287L236 299L240 300L244 290L249 274L253 308L257 315L262 308L317 370L322 362L326 342L365 378L369 390L373 392L377 383L403 446L420 455L425 455L429 457L433 460L438 461L442 467L446 472L451 471L455 476L459 472L463 476L468 476L472 473L476 476L481 478L485 475L489 475L493 472L498 471L502 468L506 467L511 467L515 465L519 463L524 463L528 458L532 457L536 456L541 455L545 451L549 450L554 451L558 451L562 449L566 446L571 447L575 454L579 453L584 451L588 446L592 442L597 441L601 434L605 416L609 426L614 412L618 418L622 421L627 422L631 414L635 409L639 407L644 402L648 399L652 402L657 402L661 409L665 414L670 414L674 418L678 417" fill="none" stroke-width="1.5"></path><g fill="#B13507"><circle cx="38" cy="241" r="2"></circle><circle cx="42" cy="253" r="2"></circle><circle cx="47" cy="222" r="2"></circle><circle cx="51" cy="214" r="2"></circle><circle cx="55" cy="229" r="2"></circle><circle cx="64" cy="229" r="2"></circle><circle cx="68" cy="205" r="2"></circle><circle cx="73" cy="217" r="2"></circle><circle cx="77" cy="244" r="2"></circle><circle cx="81" cy="220" r="2"></circle><circle cx="85" cy="193" r="2"></circle><circle cx="90" cy="232" r="2"></circle><circle cx="94" cy="243" r="2"></circle><circle cx="98" cy="248" r="2"></circle><circle cx="103" cy="245" r="2"></circle><circle cx="107" cy="249" r="2"></circle><circle cx="111" cy="218" r="2"></circle><circle cx="116" cy="246" r="2"></circle><circle cx="120" cy="235" r="2"></circle><circle cx="124" cy="252" r="2"></circle><circle cx="128" cy="200" r="2"></circle><circle cx="133" cy="224" r="2"></circle><circle cx="137" cy="249" r="2"></circle><circle cx="141" cy="238" r="2"></circle><circle cx="146" cy="259" r="2"></circle><circle cx="150" cy="254" r="2"></circle><circle cx="154" cy="258" r="2"></circle><circle cx="158" cy="240" r="2"></circle><circle cx="163" cy="230" r="2"></circle><circle cx="167" cy="238" r="2"></circle><circle cx="171" cy="195" r="2"></circle><circle cx="176" cy="249" r="2"></circle><circle cx="180" cy="250" r="2"></circle><circle cx="184" cy="240" r="2"></circle><circle cx="189" cy="259" r="2"></circle><circle cx="193" cy="272" r="2"></circle><circle cx="197" cy="259" r="2"></circle><circle cx="201" cy="276" r="2"></circle><circle cx="206" cy="277" r="2"></circle><circle cx="210" cy="269" r="2"></circle><circle cx="214" cy="274" r="2"></circle><circle cx="219" cy="286" r="2"></circle><circle cx="223" cy="287" r="2"></circle><circle cx="227" cy="272" r="2"></circle><circle cx="231" cy="287" r="2"></circle><circle cx="236" cy="299" r="2"></circle><circle cx="240" cy="300" r="2"></circle><circle cx="244" cy="290" r="2"></circle><circle cx="249" cy="274" r="2"></circle><circle cx="253" cy="308" r="2"></circle><circle cx="257" cy="315" r="2"></circle><circle cx="262" cy="308" r="2"></circle><circle cx="317" cy="370" r="2"></circle><circle cx="322" cy="362" r="2"></circle><circle cx="326" cy="342" r="2"></circle><circle cx="365" cy="378" r="2"></circle><circle cx="369" cy="390" r="2"></circle><circle cx="373" cy="392" r="2"></circle><circle cx="377" cy="383" r="2"></circle><circle cx="403" cy="446" r="2"></circle><circle cx="420" cy="455" r="2"></circle><circle cx="425" cy="455" r="2"></circle><circle cx="429" cy="457" r="2"></circle><circle cx="433" cy="460" r="2"></circle><circle cx="438" cy="461" r="2"></circle><circle cx="442" cy="467" r="2"></circle><circle cx="446" cy="472" r="2"></circle><circle cx="451" cy="471" r="2"></circle><circle cx="455" cy="476" r="2"></circle><circle cx="459" cy="472" r="2"></circle><circle cx="463" cy="476" r="2"></circle><circle cx="468" cy="476" r="2"></circle><circle cx="472" cy="473" r="2"></circle><circle cx="476" cy="476" r="2"></circle><circle cx="481" cy="478" r="2"></circle><circle cx="485" cy="475" r="2"></circle><circle cx="489" cy="475" r="2"></circle><circle cx="493" cy="472" r="2"></circle><circle cx="498" cy="471" r="2"></circle><circle cx="502" cy="468" r="2"></circle><circle cx="506" cy="467" r="2"></circle><circle cx="511" cy="467" r="2"></circle><circle cx="515" cy="465" r="2"></circle><circle cx="519" cy="463" r="2"></circle><circle cx="524" cy="463" r="2"></circle><circle cx="528" cy="458" r="2"></circle><circle cx="532" cy="457" r="2"></circle><circle cx="536" cy="456" r="2"></circle><circle cx="541" cy="455" r="2"></circle><circle cx="545" cy="451" r="2"></circle><circle cx="549" cy="450" r="2"></circle><circle cx="554" cy="451" r="2"></circle><circle cx="558" cy="451" r="2"></circle><circle cx="562" cy="449" r="2"></circle><circle cx="566" cy="446" r="2"></circle><circle cx="571" cy="447" r="2"></circle><circle cx="575" cy="454" r="2"></circle><circle cx="579" cy="453" r="2"></circle><circle cx="584" cy="451" r="2"></circle><circle cx="588" cy="446" r="2"></circle><circle cx="592" cy="442" r="2"></circle><circle cx="597" cy="441" r="2"></circle><circle cx="601" cy="434" r="2"></circle><circle cx="605" cy="416" r="2"></circle><circle cx="609" cy="426" r="2"></circle><circle cx="614" cy="412" r="2"></circle><circle cx="618" cy="418" r="2"></circle><circle cx="622" cy="421" r="2"></circle><circle cx="627" cy="422" r="2"></circle><circle cx="631" cy="414" r="2"></circle><circle cx="635" cy="409" r="2"></circle><circle cx="639" cy="407" r="2"></circle><circle cx="644" cy="402" r="2"></circle><circle cx="648" cy="399" r="2"></circle><circle cx="652" cy="402" r="2"></circle><circle cx="657" cy="402" r="2"></circle><circle cx="661" cy="409" r="2"></circle><circle cx="665" cy="414" r="2"></circle><circle cx="670" cy="414" r="2"></circle><circle cx="674" cy="418" r="2"></circle><circle cx="678" cy="417" r="2"></circle></g></g></g></g></g><g class="SourcesFooter" style="fill:#777"><g class="clickable" style="fill:#777"><text font-size="12.60" x="15.0" y="581.6"><tspan x="15" y="581.58">Source: Brian Mitchell - International Historical Statistics</tspan></text></g><text font-size="12.60" x="528.2" y="581.6"><tspan x="528.19" y="581.58"><a target='_blank' style='fill: #777;' href='https://ourworldindata.org/world-population-growth/'>OurWorldInData.org/world-population-growth/</a> • <a style="fill: #777;" class="cclogo" href="http://creativecommons.org/licenses/by/4.0/deed.en_US" target="_blank">CC BY</a></tspan></text></g></svg>