<?xml version="1.0" encoding="UTF-8" standalone="no"?>
<svg
   xmlns:dc="http://purl.org/dc/elements/1.1/"
   xmlns:cc="http://creativecommons.org/ns#"
   xmlns:rdf="http://www.w3.org/1999/02/22-rdf-syntax-ns#"
   xmlns:svg="http://www.w3.org/2000/svg"
   xmlns="http://www.w3.org/2000/svg"
   xmlns:sodipodi="http://sodipodi.sourceforge.net/DTD/sodipodi-0.dtd"
   xmlns:inkscape="http://www.inkscape.org/namespaces/inkscape"
   version="1.1"
   height="265.09427"
   width="335.35849"
   id="svg3024"
   inkscape:version="0.47 r22583"
   sodipodi:docname="Map_of_Kaapvaal_craton.svg">
  <sodipodi:namedview
     pagecolor="#ffffff"
     bordercolor="#666666"
     borderopacity="1"
     objecttolerance="10"
     gridtolerance="10"
     guidetolerance="10"
     inkscape:pageopacity="0"
     inkscape:pageshadow="2"
     inkscape:window-width="1280"
     inkscape:window-height="974"
     id="namedview3168"
     showgrid="false"
     inkscape:zoom="2.4928547"
     inkscape:cx="167.67924"
     inkscape:cy="132.54713"
     inkscape:window-x="-8"
     inkscape:window-y="-8"
     inkscape:window-maximized="1"
     inkscape:current-layer="g3029" />
  <metadata
     id="metadata24111">
    <rdf:RDF>
      <cc:Work
         rdf:about="">
        <dc:format>image/svg+xml</dc:format>
        <dc:type
           rdf:resource="http://purl.org/dc/dcmitype/StillImage" />
        <cc:license
           rdf:resource="http://web.resource.org/cc/PublicDomain" />
        <dc:title />
      </cc:Work>
      <cc:License
         rdf:about="http://web.resource.org/cc/PublicDomain">
        <cc:permits
           rdf:resource="http://web.resource.org/cc/Reproduction" />
        <cc:permits
           rdf:resource="http://web.resource.org/cc/Distribution" />
        <cc:permits
           rdf:resource="http://web.resource.org/cc/DerivativeWorks" />
      </cc:License>
    </rdf:RDF>
  </metadata>
  <defs
     id="defs1930">
    <inkscape:perspective
       sodipodi:type="inkscape:persp3d"
       inkscape:vp_x="0 : 500 : 1"
       inkscape:vp_y="0 : 1000 : 0"
       inkscape:vp_z="1000 : 500 : 1"
       inkscape:persp3d-origin="500 : 333.33333 : 1"
       id="perspective3170" />
  </defs>
  <style
     type="text/css"
     id="style_css_sheet">
/*
 * Below are Cascading Style Sheet (CSS) definitions in use in this file,
 * which allow easily changing how countries are displayed.
 *
 */

/*
 * Circles around small countries
 *
 * Change opacity to 1 to display all circles.
 *
 */
.circle
{
   opacity:0;
   fill:#b9b9b9;
   fill-opacity:1;
   stroke:black;
   stroke-width:0.5;
   stroke-miterlimit:3.97446823;
   stroke-dasharray:none;
   stroke-opacity:1;
}


/*
 * Land
 */
.land
{
   fill: #b9b9b9;
   fill-opacity: 1;
   stroke:white;
   stroke-opacity: 1;
   stroke-width:0.5;
   stroke-miterlimit: 3.97446823;
   stroke-dasharray: none;
}

/*
 * Styles for coastlines of islands with no borders
 */
.coast
{
   stroke-width: 0.3;
}

/*
 * Additional style rules
 *
 * The following are examples of colouring countries.  You can substitute these with your own styles to colour the countries on the map.
 *
 * Color a few countries:
 *
 * .gb, .au, .nc
 * {
 *    fill:       #ff0000;
 * }
 *
 * Color a few small country circles (and the countries):
 *
 * .ms, .ky
 * {
 *    opacity:    1;
 *    fill:       #ff0000;
 * }
 *
 * Remove european territories (i.e. Madeira, Reunion etc.)
 *
 * .sh, .pt-30, .es-cn, .yt, .re
 * {
 *    opacity:    0;
 * }
 *
 */

</style>
  <g
     transform="matrix(1.59433,0,0,1.59433,-2167.9793,-1426.1624)"
     id="g3029">
    <path
       class="land bw"
       d="m 1421.3263,973.79855 0.8534,-23.97972 6.8149,0.009 0.9593,-31.84378 c 2.4166,-0.58424 8.5573,-0.9447 12.056,-2.15647 1.0882,-0.37689 3.7529,-0.94264 4.8449,-0.31664 1.479,0.847 1.7635,2.61009 2.4825,3.99809 1.9196,-1.51726 3.432,-4.62341 5.7018,-4.67609 0.8492,-0.0197 0.7617,0.477 1.3827,0.563 0.804,0.111 1.2756,-0.9923 1.8772,-1.35118 1.9466,-1.16132 3.9797,-0.99771 3.6348,-0.29346 -0.097,0.19876 5e-4,1.30873 0.094,1.54573 0.52,1.312 1.2506,2.5639 2.108,3.681 0.84,1.09439 1.5162,1.68085 2.144,3.565 0.4484,1.34593 0.6169,1.63136 1.0039,2.90936 0.813,2.683 2.7661,4.97535 5.207,6.233 2.5823,1.33051 4.9494,1.05802 4.0651,5.17164 2.3576,-0.5508 4.2035,-0.27478 3.184,2.857 -0.3508,1.07774 -0.232,1.897 0.388,2.835 0.671,1.018 1.139,3.4423 2.2148,3.77618 2.1582,0.66981 4.0276,0.5575 6.3328,1.34337 1.7117,0.58352 0.2304,1.38801 0.7584,2.2669 0.4072,0.67778 1.9285,0.46215 2.1692,1.43437 -2.6902,0.33318 -2.2603,0.90425 -3.2542,2.29418 -1.1104,1.55284 -4.1446,0.78011 -5.4588,2.19609 -1.1846,1.27635 -2.1773,3.41141 -3.7759,4.67036 -0.1774,0.13965 -0.7972,0.71585 -1.4473,1.17255 -1.0822,0.76025 -2.2727,1.03767 -3.096,1.97 -1.0979,1.24326 -1.3107,1.60714 -1.5005,3.47536 -0.2332,2.29401 -1.5725,2.81425 -3.1998,4.75345 -0.9562,1.13949 -2.5342,1.45483 -4.1371,1.71583 -1.1559,0.18822 -0.4711,0.63536 -0.6921,1.75536 -0.291,1.473 -1.006,2.808 -1.482,4.22 -0.709,2.096 -1.8256,2.82736 -3.9676,2.64136 -1.944,-0.168 -1.7168,1.2267 -4.2181,0.67726 -0.9928,-0.21807 -3.3701,-1.32838 -4.2174,-1.38553 -1.2408,-0.0837 -2.0492,-0.85556 -2.7628,-1.74909 -1.062,-1.33 -3.9584,-2.3045 -5.4561,-0.37282 -1.3688,1.76549 -0.7646,3.73564 -2.0267,5.55128 -0.6226,0.89567 -1.5093,1.51081 -2.3523,2.08881 -1.042,0.713 -1.3452,1.86373 -2.2302,2.68973 -0.659,0.616 -1.2237,0.34864 -1.9607,0.64864 -0.245,0.21 -0.2687,0.45436 -0.2127,0.80336 -0.287,0.797 -1.4894,1.01845 -2.1864,0.97345 -1.109,-0.073 -1.7298,-0.34817 -2.7994,-0.43254 -0.9709,-0.0766 -1.8374,-0.45796 -3.0811,0.57209 -1.8122,-3.4569 1.9725,-5.02154 0.649,-9.72 -0.5021,-1.78252 -1.213,-3.76 -2.131,-5.37 -0.802,-1.406 -2.354,-2.106 -3.28,-3.41"
       id="bw"
       style="fill:#e0e0e0;fill-opacity:1;stroke:#646464;stroke-width:0.50000000000000000;stroke-miterlimit:3.97446822999999980;stroke-opacity:1;stroke-dasharray:none" />
    <g
       transform="translate(-28.7126,62.0078)"
       class="land coast mz"
       id="mz"
       style="fill:#e0e0e0;fill-opacity:1;stroke:#646464;stroke-width:0.30000000999999998;stroke-miterlimit:3.97446822999999980;stroke-opacity:1;stroke-dasharray:none">
      <path
         d="m 1566.1089,886.0907 c 0.255,-0.717 0.399,-1.477 0.36,-2.24 -0.312,0.686 -0.654,1.476 -0.36,2.24"
         id="path3382"
         style="fill:#e0e0e0;stroke:#646464;stroke-opacity:1" />
      <path
         d="m 1573.6689,860.9607 c 0.604,-0.574 0.461,-0.814 -0.431,-0.72 0.144,0.24 0.288,0.48 0.431,0.72"
         id="path3384"
         style="fill:#e0e0e0;stroke:#646464;stroke-opacity:1" />
      <path
         class="land mz"
         d="m 1528.5989,827.3307 c 5.537,-2.081 11.094,-4.114 16.664,-6.104 1.245,-0.445 2.4177,-1.03754 3.6517,-1.51454 0.418,-0.161 1.4766,-0.84801 1.9416,-0.70201 l 4.1627,4.65155 c 0.041,-0.933 2.044,-0.607 2.986,-0.873 0.81,-0.228 2.03,-0.987 2.695,-0.125 1.229,1.594 1.236,5.456 0.597,7.223 -0.811,2.239 -2.697,4.252 -1.5,6.556 0.285,0.547 0.121,1.199 0.452,1.719 0.374,0.588 1.038,0.908 1.41,1.495 0.729,1.149 1.852,2.224 2.886,3.107 0.986,0.842 0.933,0.996 0.257,2.102 -0.722,1.181 1.618,1.626 1.772,0.036 0.148,-1.546 -0.298,-2.913 -1.186,-4.169 1.406,-1.024 0.675,-3.147 2.741,-3.576 2.8,-0.581 3.048,-1.803 3.057,-4.626 0,-1.027 -0.178,-2.075 -0.117,-3.1 0.1,-1.67 0.977,-3.514 0.26,-5.152 -0.718,-1.641 -2.217,-3.187 -3.181,-4.715 -0.896,-1.421 -1.772,-2.95 -2.907,-4.201 -0.834,-0.918 -0.5197,-0.0811 -1.2697,-0.92106 -0.2225,-0.71864 0.1597,-2.12844 -0.2987,-3.52177 -0.6006,-1.82531 0.4723,-2.92877 0.2334,-3.73775 -1.3853,-4.67745 -0.5479,-3.53239 -0.6139,-4.12065 0.5414,-1.23118 2.3458,-1.00026 1.9074,-5.36157 1.5004,0.14079 2.8631,0.47205 4.6185,-0.0362 0.9926,-0.28739 1.927,-1.51 3.013,-0.807 0.751,0.486 1.115,1.415 1.913,1.84 0.611,0.326 2.64,0.438 3.313,0.265 1.119,-0.288 1.925,-2.168 3.188,-0.797 2.344,2.544 5.159,-0.469 6.294,-2.338 0.626,-1.032 1.742,-1.06 2.719,-0.441 1.592,1.009 1.977,1 3.487,-0.06 1.262,-0.885 2.252,-1.508 3.897,-1.185 0.946,0.187 2.773,-1.628 3.656,-2.03 1.742,-0.792 3.197,-1.906 4.699,-3.065 1.834,-1.417 3.029,0.954 1.438,1.715 0.243,0.114 0.482,0.234 0.72,0.36 -0.728,0.938 -0.315,1.994 -0.72,3.02 -0.217,0.552 -1.608,1.267 -0.788,1.85 0.68,0.482 0.521,3.061 0.618,4.059 0.072,0.748 0.131,1.51 0.064,2.261 -0.1,1.139 -0.455,0.853 -0.137,1.862 0.073,0.376 0.047,0.746 -0.079,1.107 -0.148,0.698 0.291,0.91 0.471,1.514 0.264,0.878 -0.068,2.138 -0.659,2.827 2.004,0.285 -0.604,4.684 0.181,4.935 1.371,0.439 0.032,5.016 0.469,6.085 1.51,-0.895 -0.219,2.024 0.221,2.73 0.121,-1.273 1.404,-1.054 1.184,0.208 -0.238,1.368 0.09,2.338 -1.334,3.112 0.259,0.202 0.525,0.392 0.801,0.57 -1.648,-0.393 -0.227,0.208 -0.7,0.775 -0.299,0.358 -0.764,0.493 -0.96,0.955 1.591,-0.566 0.217,1.958 -0.02,2.457 -0.797,1.685 -2.494,2.619 -3.313,4.293 -0.813,1.662 -2.141,2.628 -3.045,4.203 -0.692,1.208 -5.384,2.839 -5.215,4.153 0.078,0.608 -3.543,1.23 -4.248,1.664 -0.624,0.384 -1.331,0.691 -2.033,0.896 -1.133,0.331 -0.938,-0.102 -1.761,0.659 -1.184,1.095 -2.843,1.613 -4.251,2.345 -1.401,0.729 -3.633,4.137 -5.205,2.8 2.936,3.221 -4.194,4.458 -3.53,7.71 -0.606,0.083 -1.013,-0.313 -1.15,-0.87 0.142,1.143 -0.944,2.592 -0.79,1.01 -1.371,1.189 -3.03,2.005 -4.145,3.473 -0.987,1.299 -1.885,2.532 -3.073,3.666 -0.481,0.459 -2.393,2.476 -3.08,1.641 -0.443,-0.538 -1.009,-2.383 -2.012,-1.799 1.729,-0.104 1.125,2.072 1.466,2.6 0.32,0.497 0.303,1.304 0.063,1.826 -0.109,0.275 -0.309,0.434 -0.599,0.474 0.222,0.414 0.296,0.854 0.222,1.32 -0.188,2.273 0.559,1.645 1.729,3.141 0.656,0.839 0.845,1.832 0.831,2.872 -0.01,0.403 -0.327,3.538 0.249,1.598 -0.438,1.693 0.688,3.523 0.859,5.25 0.104,1.035 0.474,2.118 0.303,3.163 -0.145,0.881 -0.526,1.86 0.418,2.458 0.169,-1.109 0.121,-2.108 0.869,-3.03 -0.018,0.339 0,2.768 0.36,0.729 -0.201,1.171 -0.494,2.329 -0.598,3.516 -0.094,1.065 0.661,2.012 0.525,3.048 -0.372,2.827 -2.405,5.553 -1.947,8.556 -0.262,-1.642 0.942,0.05 1.01,-1.37 1.083,1.826 -1.018,4.556 -2.142,5.844 -1.858,2.129 -4.677,3.102 -7.272,4.017 -2.937,1.036 -5.896,2.114 -8.516,3.819 -1.183,0.77 -2.419,1.447 -3.077,2.763 -0.565,1.129 -0.851,2.442 -2.323,2.636 0.982,-0.011 2.552,3.49 3.38,1.37 -0.176,1.795 0.763,6.44428 -1.091,6.31673 l -4.475,-0.17323 c 0.067,-1.47179 -0.8474,-3.13731 -0.6132,-4.2775 0.1968,-0.95837 -0.269,-1.88524 -0.9187,-2.74254 -0.4782,-0.63108 -0.37,-2.15766 0.1313,-3.36206 0.285,-0.68474 0.2466,-3.1394 0.2766,-3.8434 0.072,-1.724 0.059,-3.447 0.1892,-5.167 0.117,-1.552 -0.2392,-2.587 -0.4892,-4.069 -0.376,-2.22 -1.888,-4.035 -2.349,-6.196 -0.222,-1.043 -0.056,-2.143 -0.2386,-3.219 -0.254,-1.495 -0.5554,-2.932 -0.9624,-4.388 -0.264,-0.944 -0.6868,-0.66392 -0.1564,-1.36092 0.5303,-0.41882 2.0139,-2.35146 2.6394,-2.99008 0.9322,-0.95174 5.266,-7.046 6.406,-6.217 -1.149,-1.483 10e-4,-2.342 0.36,-3.82 0.221,-0.909 -0.66,-2.178 0.339,-2.774 1.39,-0.829 1.753,-1.958 2.52,-3.387 0.328,-0.611 0.5066,-1.12821 0.7436,-1.78821 0.376,-1.041 0.087,-1.84079 0.1384,-2.85079 -0.24,0.096 -0.479,0.193 -0.72,0.29 -0.5269,-1.04794 -0.8996,-1.9898 -0.6938,-2.57109 0.2497,-0.70485 1.1452,-1.28789 0.808,-2.23251 -0.2891,-0.81009 -1.4565,-0.52164 -1.1276,-1.82341 0.2456,-0.972 1.9483,-1.13029 1.8104,-2.31399 -0.2371,-2.03511 1.0291,-1.27211 0.905,-2.606 -0.1026,-1.10215 -0.722,-2.15061 -0.512,-3.26161 0.147,-0.781 0.6596,-1.64814 0.4662,-2.42739 -0.3851,-1.55173 -0.2559,-2.60274 -0.2214,-4.26642 0.011,-0.54041 -0.279,-0.9326 -0.429,-1.4586 -0.218,-0.763 0.5262,-2.05998 0.6542,-2.81898 -1.0553,0.29719 -1.5908,0.28722 -2.152,-0.751 -0.5307,-0.98189 -3.561,-1.0648 -4.35,-1.519 -2.43,-1.3989 -4.7529,-2.85695 -7.3659,-3.596 -0.8366,-0.23662 -3.4527,-0.16047 -4.3665,-0.37819 -1.4794,-0.35247 -0.8846,-2.75381 -1.0216,-3.85581 -0.195,-1.602 -1.404,-3.029 -1.261,-4.662"
         id="path3462"
         style="fill:#e0e0e0;fill-opacity:1;stroke:#646464;stroke-width:0.50000000000000000;stroke-miterlimit:3.97446822999999980;stroke-opacity:1;stroke-dasharray:none" />
      <path
         d="m 1600.8089,838.8507 c 0.24,-0.167 0.479,-0.333 0.72,-0.5 0,0.42 -0.065,0.827 -0.21,1.221 -0.17,-0.241 -0.34,-0.481 -0.51,-0.721"
         id="path3466"
         style="fill:#e0e0e0;stroke:#646464;stroke-opacity:1" />
    </g>
    <g
       transform="translate(-29.9017,-45.0745)"
       class="land ao"
       id="ao"
       style="fill:#e0e0e0;fill-opacity:1;stroke:#646464;stroke-width:0.50000000000000000;stroke-miterlimit:3.97446822999999980;stroke-opacity:1;stroke-dasharray:none">
      <path
         d="m 1390.038,953.923 c -0.109,-3.509 0.841,-7.05 0.444,-10.57 -0.062,-0.544 -0.463,-1.068 -0.237,-1.625 0.323,-0.796 1.2,-1.259 1.55,-2.087 0.281,-0.664 0.313,-1.381 0.406,-2.085 0.084,-0.634 0.92,-1.41 0.711,-1.947 -0.447,-1.146 1.116,-4.228 1.366,-5.515 0.357,-1.837 -0.035,-3.832 0.994,-5.444 0.685,-1.074 0.251,-3.32 1.042,-4.014 0.813,-0.713 2.129,-2.26 2.64,-3.221 0.755,-1.419 0.291,-3.665 2.589,-3.875 1.617,-0.147 1.759,-1.387 2.558,-2.783 1.896,-3.314 2.432,-8.451 1.557,-12.122 -0.404,-1.695 -1.07,-2.902 -2.024,-4.335 -0.994,-1.492 -1.026,-2.651 -1.573,-4.212 -0.249,-0.712 -0.883,-1.249 -0.979,-2.01 -0.118,-0.931 0.02,-1.793 -0.393,-2.669 -0.612,-1.3 -1.825,-2.981 -10e-4,-3.913 -0.487,0.353 -0.836,0.897 -0.79,1.52 0.388,-0.731 0.815,-1.479 1.41,-2.064 0.476,-0.468 1.245,-0.439 1.328,-1.188 0.215,-1.952 -0.182,-3.743 -1.116,-5.449 -1.051,-1.919 -1.602,-3.93 -2.417,-5.951 -0.361,-0.896 -0.333,-1.893 -0.594,-2.815 -0.388,-1.371 -1.656,-2.297 -2.361,-3.491 -0.577,-0.977 -2.588,-4.384 -0.835,-4.926 0.809,-0.25 1.644,-0.255 2.474,-0.363 1.154,-0.151 1.723,-1.188 2.999,-1.311 5.892,-0.566 11.845,0.106 17.768,-0.028 2.248,-0.051 4.551,-0.23 6.797,-0.149 2.11,0.077 1.659,1.516 2.638,2.87 0.408,0.564 0.032,2.271 0.22,3.023 0.337,1.354 1,2.588 1.502,3.881 0.39,1.002 -0.213,1.879 0.631,2.777 0.901,0.958 1.133,1.655 1.673,2.821 0.333,0.717 1.884,4.091 2.905,3.809 0.613,-0.169 3.722,0.07 3.719,0.063 -0.16,-0.393 3.35,-1.408 3.989,-1.266 1.798,0.399 3.448,0.61 5.58,0.61 -0.26,-1.258 0.495,-2.494 0.07,-3.74 1.064,0.228 1.161,-0.79 1.026,-1.565 -0.187,-1.073 0.644,-2.394 0.274,-3.335 1.851,0 3.707,0.036 5.557,0.02 0.553,-0.005 0.229,-0.649 0.68,-0.802 0.643,-0.219 1.386,-0.007 2.044,-0.007 -0.412,2.063 -1.539,3.24 1.084,3.24 2.292,0 4.605,-0.121 6.894,-0.07 1.9,0.042 1.553,1.943 1.111,3.224 -0.247,0.719 -0.572,1.453 -0.637,2.219 -0.101,1.214 0.951,2.44 1.168,3.653 0.455,2.548 -0.491,5.367 -0.689,7.928 -0.207,2.671 0.736,3.721 2.269,5.721 1.082,1.412 1.624,5.067 1.298,6.795 -0.114,0.609 -0.689,0.996 -0.902,1.575 -0.396,1.076 0.69,2.109 0.354,3.225 0.93,0.023 1.758,-1.304 2.516,-1.712 0.651,-0.35 2.618,0.176 3.339,0.375 1.278,0.353 2.79,-1.085 4.156,-1.032 1.304,0.051 2.759,0.86 3.31,-0.87 0.6101,0.88064 0.684,3.68063 0.5007,4.677 -0.2535,1.37855 -0.2303,2.75351 -0.5687,4.118 -0.4074,1.64243 0.635,3.141 0.207,4.745 -0.432,1.618 -1.59,2.937 -0.21,4.46 -2.837,1.19692 -6.8121,0.62065 -9.8384,0.60372 -1.5169,-0.008 -3.2953,-0.37415 -4.8038,-0.17236 -1.326,0.17739 -0.6639,5.11353 -0.7243,6.69364 -0.1606,4.20264 0.07,7.16898 -0.091,10.385 -0.1601,3.20359 0.01,6.469 -0.078,9.68 -0.09,3.28215 2.191,4.159 4.081,6.501 2.016,2.498 4.048,5.005 6.775,6.778 -4.457,0.867 -8.941,1.625 -13.34,2.765 -1.753,0.455 -2.428,0.011 -4.09,-0.175 -0.742,-0.083 -1.373,0.273 -2.049,0.497 -1.098,0.364 -2.145,-0.171 -3.194,-0.459 -3.732,-1.021 -7.728,-0.61 -11.524,-1.203 -1.628,-0.254 -2.4576,-1.66343 -3.233,-2.93 -0.6899,-1.12692 -2.8952,-0.66224 -4.054,-0.608 -9.3071,0.43566 -18.874,0.023 -28.194,0.023 -1.92,0 -2.127,-0.119 -3.783,-1.418 -1.665,-1.306 -2.9807,-2.93018 -5.223,-1.936 -1.654,0.73333 -3.3699,2.73114 -5.259,1.829 -2.3152,-1.10562 -2.6457,0.0376 -4.398,0.358"
         id="path3888"
         style="fill:#e0e0e0;stroke:#646464;stroke-opacity:1" />
      <path
         d="m 1392.268,848.013 c 1.293,-1.013 2.748,-3.61 4.447,-3.951 0.756,-0.151 0.688,-1.373 1.523,-1.369 0.937,0.004 1.538,1.493 2.16,2.011 -1.514,1.037 -2.88,1.959 -4.188,3.267 -0.64,0.639 -0.456,0.64 -0.165,1.377 0.41,1.039 0.18,2.267 0.085,3.341 -0.129,1.458 -2.868,2.643 -2.887,0.734 -0.01,-1.053 0.556,-1.3 0.232,-2.464 -0.238,-0.856 -1.54,-2.296 -0.487,-3.085 -0.24,0.045 -0.48,0.092 -0.72,0.139"
         id="path3890"
         style="fill:#e0e0e0;stroke:#646464;stroke-opacity:1" />
    </g>
    <path
       class="land zm"
       d="m 1437.6063,899.49855 c 0,-8.184 0.029,-16.39364 0.1335,-24.57664 0.011,-0.877 -0.3055,-2.68236 0.9145,-2.94936 1.068,-0.233 2.386,0.069 3.473,0.098 3.635,0.095 7.497,0.725 11.028,-0.442 -1.145,-1.263 -0.563,-2.394 -0.024,-3.76 0.653,-1.66 -0.224,-2.958 -0.137,-4.614 0.162,-3.065 1.477,-6.577 0.231,-9.626 1.148,0.019 1.0352,1.26896 2.229,1.515 1.3209,0.27224 0.733,2.23326 0.221,3.025 1.588,0.349 1.442,0.309 2.989,-0.364 1.504,-0.654 3.225,-1.064 4.86,-1.156 -0.588,1.156 -0.299,3.261 0.618,4.18 0.72,0.721 1.897,0.277 2.789,0.686 1.296,0.595 2.2376,1.163 3.7146,1.183 2.382,0.032 4.5924,1.604 5.4354,-1.428 0.918,-3.304 1.894,0.389 3.041,1.392 0.785,0.685 0.679,1.785 1.248,2.618 0.908,1.33 1.9059,0.0698 2.6974,0.59018 1.1974,0.78724 1.6602,1.50482 2.9584,1.48318 1.5281,-0.0255 1.1702,2.47364 2.1892,3.41664 1.495,1.384 1.777,2.546 2.626,4.317 1.071,2.235 4.193,-2.096 5.374,-0.647 -0.515,0.41 -0.536,1.094 0.121,1.356 1.153,0.461 0.761,-1.875 0.774,-2.375 0.078,-2.896 0.175,-5.804 0.175,-8.701 -0.522,0.197 -1.097,0.25 -1.63,0.416 -0.915,0.284 -0.6475,1.07247 -1.0424,1.69491 -0.6846,1.07916 -3.7156,-1.3967 -4.4116,-2.12291 -2.1018,-2.19312 -4.5118,-3.98957 -3.2735,-7.62936 0.67,-1.9695 1.2385,-3.5975 1.7885,-5.27164 0.3795,-1.1552 -0.3866,-3.081 -0.2796,-4.383 0.172,-2.122 1.221,-6.599 -1.617,-7.475 0.918,-2.416 6.0166,-3.755 4.0656,-6.979 4.2063,-0.89887 7.9461,-1.16106 12.74,-2.229 0,0.81096 -1.0016,1.84392 -0.971,2.04819 0.065,0.43303 1.4258,-0.17661 0.743,0.95397 0.1424,0.27055 0.6615,-1.17679 2.4433,0.59791 1.8412,1.83389 2.5195,0.61995 2.332,-0.29234 2.0521,0.0207 2.5733,0.74584 3.4227,2.25027 0.3714,0.65772 0.7896,0.38936 1.3526,0.18736 0.729,-0.262 0.9851,0.95081 1.583,1.202 1.209,0.50791 3.4376,0.33949 3.8304,1.76864 0.1175,0.42736 0.927,0.26907 1.4261,0.425 0.83,0.25932 1.5573,0.52737 1.8613,0.88075 0.304,0.35339 0.2917,0.79211 0.1416,1.25025 -0.3953,1.20665 2.377,0.749 2.865,2.548 0.163,0.601 -0.313,0.952 -0.221,1.51 0.141,0.864 0.797,1.174 1.394,1.704 0.518,0.462 0.712,2.024 0.933,2.669 0.413,1.207 -1,2.354 -2.165,2.71 -1.269,0.387 -0.536,1.365 -0.224,2.335 0.487,1.517 -0.406,2.323 -0.456,3.785 -0.07,2.1 -1.034,6.595 1.599,7.388 -1.072,1.149 -4.35,1.692 -4.329,3.621 0.013,1.261 0.3324,1.72866 0.076,3.154 -0.3733,2.07508 -1.7152,3.29428 -2.2078,4.745 -0.2839,0.83612 0.6579,1.50729 1.296,1.95781 0.922,0.65099 1.3534,0.17192 1.7198,0.80937 -7.1259,3.32136 -14.7497,5.33877 -22,8.29382 -0.9295,0.65107 1.5843,3.95393 1.1168,5.61446 -0.694,0.081 -2.6148,0.36954 -3.2888,0.0985 -1.32,-0.529 -2.885,0.288 -4.126,0.706 -1.771,0.596 -4.055,1.645 -4.438,3.702 -0.164,0.876 0.057,1.831 -0.343,2.661 -0.566,1.179 -2.129,1.322 -3.207,1.747 -1.873,0.737 -4.403,2.268 -5.439,4.036 -1.051,1.793 -5.179,9.642 -8.283,7.786 -0.677,-0.405 -1.398,-0.784 -2.152,-1.023 -1.1,-0.35 -2.194,1.105 -3.061,0.625 -0.682,-0.379 -0.9495,-1.64914 -1.813,-1.44273 -0.1934,0.0462 -2.3984,0.59887 -3.495,-0.435 -1.2425,-1.17146 -1.8062,-1.98197 -2.7896,-2.24635 -1.0519,-0.2205 -1.7604,0.88196 -3.676,-0.25356 -1.519,-0.234 -2.5726,0.57091 -4.0664,0.68664 -0.7705,0.0597 -2.2459,0.65149 -2.738,0.463 -2.596,-0.99432 -4.3307,-3.97191 -6.1637,-6.01391 -1.005,-1.119 -1.7778,-2.02491 -2.8613,-3.06109 -1.017,-0.97252 -1.3041,-1.94472 -1.64,-3.394"
       id="zm"
       style="fill:#e0e0e0;fill-opacity:1;stroke:#646464;stroke-width:0.50000000000000000;stroke-miterlimit:3.97446822999999980;stroke-opacity:1;stroke-dasharray:none" />
    <path
       class="land na"
       d="m 1360.1363,908.84853 c 1.058,-0.165 1.894,-1.097 3.025,-0.896 0.963,0.171 1.834,0.902 2.854,0.707 2.125,-0.406 3.581,-2.884 6.001,-2.224 1.927,0.526 2.9521,2.69258 4.8864,3.33482 1.0974,0.36438 4.4769,0.22282 6.2726,0.23818 8.2152,0.0703 16.4423,0.23438 24.647,-0.096 2.1713,-0.0874 2.907,-0.24609 3.9319,1.67 1.3046,2.43903 3.257,1.90038 5.6011,2.158 3.073,0.33773 6.344,0.19728 9.2224,1.20709 1.1065,0.38822 2.1021,0.52872 3.0799,-0.064 0.8642,-0.52388 1.6883,-0.33594 2.9369,-0.0307 1.2623,0.30856 2.0104,0.0993 2.8503,-0.0956 5.1269,-1.1897 10.9234,-2.39275 16.3575,-3.42073 1.053,-0.19919 2.121,-0.682 3.214,-0.515 0.646,0.099 1.624,0.721 2.265,0.401 2.043,-1.02 2.9873,1.13828 4.3353,2.06428 -0.984,-0.256 -2.1263,0.31772 -3.0593,0.68072 -1.16,0.451 -1.501,2.182 -2.613,1.159 -1.79,-1.646 -5.288,3.747 -6.606,4.381 -0.642,-1.236 -1.334,-3.988 -3.164,-4.161 -2.357,-0.223 -5.293,0.967 -7.59,1.454 -2.703,0.573 -5.8983,0.68309 -8.5903,1.18509 l -0.9939,31.89954 -6.7995,-0.0986 -1.4767,54.38098 c 0.1689,2.4849 -1.9546,1.4388 -3.1384,2.5652 -0.5845,0.5561 -0.542,1.0979 -1.7088,1.5002 -0.797,0.2748 -1.1674,0.6096 -0.5174,1.3456 -1.795,0.531 -1.7091,-0.1429 -3.3784,-0.3894 -1.7541,-0.2591 -3.2519,0.6887 -5.3276,0.2424 -3.2854,-0.7064 -5.2339,-1.9177 -5.3847,-2.5261 -0.4154,-1.6758 -0.031,-0.983 0.037,-2.3153 -0.062,-0.5264 -0.636,-0.3889 -1.0356,-0.8042 -0.5703,-0.5927 -1.0673,-1.8571 -1.6708,-1.4744 -1.9016,1.2057 -1.3762,2.996 -2.04,3.515 -0.9434,0.7377 -2.127,1.7044 -3.112,0.465 -1.3014,-1.6375 -3.041,-2.945 -4.202,-4.693 -1.032,-1.555 -1.855,-3.23198 -2.687,-4.89898 -0.442,-0.885 -0.483,-1.837 -0.637,-2.792 -0.159,-0.986 -0.83,-1.5 -1.023,-2.398 -0.355,-1.647 0.38,-2.252 -0.839,-3.77 -0.487,-0.606 -0.324,-0.997 -0.307,-1.771 0.029,-1.251 -0.405,-2.334 -0.54,-3.554 -0.096,-0.869 -0.021,-1.749 -0.27,-2.599 -0.351,-1.202 0.25,-2.365 0.016,-3.567 -0.403,-2.072 -1.388,-3.963 -2.14,-5.918 -0.849,-2.207 -0.214,-4.07 -0.436,-6.304 -0.15,-1.516 -0.3709,-3.41394 -0.234,-4.197 0.064,-0.36694 0.984,-4.049 0.581,-3.96 -0.096,-1.983 -1.097,-3.925 -2.222,-5.516 -0.633,-0.895 -1.356,-1.729 -1.888,-2.693 -0.488,-0.886 -0.589,-1.97 -1.228,-2.777 -2.945,-3.719 -3.577,-8.234 -5.752,-12.264 -1.995,-3.694 -2.665,-8.768 -5.907,-11.674 -3.489,-3.125 -3.897,-7.688 -3.596,-12.097"
       id="na"
       style="fill:#e0e0e0;fill-opacity:1;stroke:#646464;stroke-width:0.50000000000000000;stroke-miterlimit:3.97446822999999980;stroke-opacity:1;stroke-dasharray:none" />
    <path
       class="land za"
       d="m 1394.7653,1006.8486 c 0.75,-0.707 1.891,-0.563 2.036,-1.677 0.123,-0.942 0.783,-2.577 1.782,-2.896 1.316,-0.421 1.151,1.419 2.051,1.678 1.55,0.445 -0.032,1.993 0.722,2.938 1.322,1.657 3.362,1.809 5.309,2.428 1.773,0.564 3.197,-0.23 4.931,-0.187 1.555,0.04 2.157,0.921 3.759,0.447 -0.962,-1.091 0.232,-1.264 0.877,-1.517 0.89,-0.348 0.956,-1.5 2.082,-1.828 0.726,-0.212 2.23,-0.315 2.319,-1.321 l 0.691,-31.11505 c 0.852,1.2 2.32,1.768 3.113,3.018 0.904,1.427 1.4604,3.3248 2.0494,4.9058 0.594,1.596 1.1206,3.3302 0.3456,4.9752 -0.992,2.105 -1.718,3.256 -0.748,5.602 1.715,-1.98 5.964,1.029 7.828,-0.782 0.309,-0.3 0.072,-1.068 0.526,-1.199 0.508,-0.147 0.951,-0.042 1.446,-0.325 1.293,-0.738 1.563,-2.433 2.906,-3.232 1.477,-0.878 2.422,-1.844 2.761,-3.606 0.295,-1.534 0.245,-2.809 1.509,-3.955 1.101,-0.998 2.526,-1.199 3.87,-0.593 1.107,0.5 2.704,2.852 3.758,2.823 2.367,-0.063 5.147,2.79 7.389,1.017 1.004,-0.794 2.505,0.31 3.756,-0.621 1.336,-0.995 1.822,-2.657 2.395,-4.158 0.304,-0.795 0.574,-1.614 0.706,-2.458 0.216,-1.372 -0.443,-1.271 0.949,-1.666 0.808,-0.229 3.171,-0.631 3.615,-1.389 0.793,-1.355 2.364,-1.963 3.025,-3.396 0.721,-1.561 0.413,-3.174 1.48,-4.645 0.913,-1.259 1.938,-1.371 3.12,-2.195 1.211,-0.845 2.756,-2.146 3.68,-3.311 0.787,-0.993 1.31,-2.516 2.494,-3.118 1.185,-0.602 2.585,-0.657 3.825,-1.109 1.188,-0.433 1.154,-0.958 1.735,-1.877 0.492,-0.78 1.834,-1.033 2.653,-1.204 3.341,-0.7 5.381,1.499 8.631,1.522 2.893,0.021 5.523,-1.095 6.474,2.456 0.53,1.981 0.985,4.001 1.038,6.06 0.049,1.874 1.195,3.483 1.873,5.166 1.453,3.604 1.0984,7.02677 0.9078,10.831 -0.073,1.46319 0.01,3.25521 -0.5178,4.801 -0.2569,0.7547 -0.3711,0.70813 -0.1002,2.88032 0.1223,0.056 -0.8771,-1.07593 -1.8758,-1.41825 -0.9468,-0.32452 -1.7891,-0.20229 -2.5594,-0.19371 -0.6363,1.24344 -1.6053,0.9878 -2.3317,2.56341 -0.8752,1.89823 -1.6607,4.81678 -1.9324,4.60599 1.4102,1.27135 1.8891,2.28858 2.7624,3.28933 1.4221,1.62951 3.4697,2.49532 5.0243,0.95308 0.4247,-0.42127 -0.212,-0.6492 1.3318,-2.80702 l 1.2916,0.0343 4.5335,0.15683 c -0.857,3.791 -1.9411,7.1347 -2.9541,10.88977 -0.524,1.943 -1.549,5.89 -4.224,5.699 0.423,0.951 -0.82,0.917 -1.392,1.032 -0.717,0.145 -1.326,1.046 -1.781,1.552 -1.609,1.792 -3.254,3.922 -3.993,6.205 -0.415,1.282 -1.549,2.092 -2.194,3.24 -0.993,1.767 -2.032,3.518 -3.194,5.179 -2.092,2.992 -4.332,5.01 -7.119,7.307 -2.326,1.918 -3.698,4.703 -6.021,6.613 -2.956,2.43 -5.849,4.938 -8.896,7.254 -2.395,1.819 -5.14,3.997 -8.224,4.413 -1.482,0.201 -2.95,-0.614 -4.415,-0.166 -1.061,0.324 -2.539,1.604 -1.08,2.52 -1.735,0.771 -3.66,-1.44 -5.286,-0.325 -1.897,1.301 -2.3,2.068 -4.903,1.076 -1.954,-0.744 -4.458,-1.538 -6.521,-0.751 -0.924,0.353 -0.459,0.948 -1.859,0.447 -0.824,-0.295 -2.262,0.215 -2.681,-0.737 -0.027,0.12 -0.027,0.24 0,0.36 -2.114,-0.343 -5.499,0.631 -6.583,2.599 -0.945,1.718 -5.67,-0.056 -7.173,0.592 -0.902,0.39 -1.853,0.13 -2.699,0.53 -1.025,0.484 -2.162,1.467 -3.063,2.167 -1.137,0.886 -0.687,0.71 -2.002,0.372 -0.571,-0.146 -1.215,0.181 -1.725,-0.238 -0.581,-0.479 -1.13,-1.048 -1.875,-1.271 1.309,-1.796 -2.712,-1.865 -3.6,-2.02 0.546,-1.399 -0.024,-2.649 -1.689,-2.342 -1.13,0.209 -0.718,1.547 -0.691,2.342 -2.054,-0.799 -0.429,-3.24 -0.23,-4.486 0.173,-1.085 -0.419,-2.204 -0.962,-3.095 -0.313,-0.513 -2.872,-4.058 -1.178,-2.419 -0.724,-0.727 -0.409,-1.529 -1.488,-1.521 -0.913,0.01 0.09,-2.272 0.188,-2.589 2.329,1.367 2.927,-1.308 2.969,-3.101 0.073,-3.069 -0.773,-5.659 -2.361,-8.29 -2.363,-3.915 -4.455,-7.792 -5.811,-12.19 -0.633,-2.054 -1.04,-4.173 -1.801,-6.188 -0.76,-2.018 -2.592,-3.813 -2.784,-6.012"
       id="za"
       style="fill:#e0e0e0;fill-opacity:1;stroke:#646464;stroke-width:0.50000000000000000;stroke-miterlimit:3.97446822999999980;stroke-opacity:1;stroke-dasharray:none" />
    <path
       class="land ls"
       d="m 1471.8763,1016.0586 c 0.955,0.943 0.87,2.302 1.643,3.276 0.667,0.842 0.439,1.957 1.141,2.651 0.88,0.872 3.176,3.81 4.698,2.576 0.666,-0.541 1.229,-2.344 1.697,-3.126 0.739,-1.237 1.994,-0.988 3.196,-1.324 0.875,-0.245 2.747,-0.978 3.12,-1.901 0.475,-1.178 0.528,-1.852 1.365,-2.892 0.316,-0.393 1.323,-1.458 1.154,-2.036 -0.526,-1.819 -1.285,-1.935 -2.491,-3.196 -0.943,-0.987 -1.948,-1.908 -2.88,-2.901 -0.807,-0.858 -2.188,0.498 -2.924,0.814 -0.813,0.349 -1.202,0.728 -1.999,1.167 -0.934,0.514 -1.905,0.329 -2.649,1.286 -0.802,1.031 -1.201,2.307 -1.917,3.393 -0.822,1.244 -2.02,1.389 -3.154,2.213"
       id="ls"
       style="fill:#e0e0e0;fill-opacity:1;stroke:#646464;stroke-width:0.50000000000000000;stroke-miterlimit:3.97446822999999980;stroke-opacity:1;stroke-dasharray:none" />
    <path
       class="land mw"
       d="m 1518.9403,878.12856 c 0.2487,-0.49074 1.5965,-2.66071 2.0719,-4.09147 0.4779,-1.43822 0.3803,-1.83019 0.088,-3.71054 -0.2684,-1.7238 3.6215,-2.815 4.4165,-3.667 -2.8191,-0.85709 -1.637,-5.48769 -1.645,-7.527 -0.01,-1.70097 1.092,-2.42 0.169,-4.137 -1.076,-2.004 0.5234,-1.55305 1.5966,-2.34954 1.2603,-0.93537 1.5677,-2.87782 -0.5386,-5.32366 -1.6926,-1.96552 0.4242,-2.56019 -1.1793,-3.6276 -1.3215,-0.8797 -1.8411,-0.84245 -2.1507,-1.16848 -0.1704,-0.17941 0.3172,-1.26868 -0.1512,-1.83093 0.2341,0.17953 1.8879,0.80785 2.6864,0.91313 0.9953,0.13122 0.7248,0.88221 1.5556,0.99899 0.8132,0.11433 2.6117,-0.0348 3.1172,0.94209 0.022,1.30856 0.086,2.85189 1.6826,4.77964 1.4386,1.7369 0.069,2.08992 0.2828,3.47867 0.182,1.18121 0.619,6.72765 0.6387,7.37321 0.078,2.55385 -3.2306,5.08951 -2.3517,6.60802 3.3842,5.84719 2.3044,5.76219 2.1152,6.93731 -0.7876,4.89224 2.533,3.78722 2.0302,5.99751 -1.2419,5.45902 2.0436,4.57082 1.8937,1.97281 l 2.7143,3.49244 c 0.6351,0.32523 0.2622,-4.47767 -1.5571,-5.90895 -1.65,0.25005 -0.938,-1.30089 -1.1491,-1.74458 1.3031,0.63408 1.4464,0.72397 2.9814,3.04792 1.0162,1.53859 1.9169,3.1505 3.2892,4.748 1.5244,1.77451 1.5611,3.477 0.9896,5.726 -0.5021,1.97606 0.2398,3.91121 -0.082,5.96121 -0.139,0.885 -0.403,1.937 -1.164,2.504 -0.846,0.631 -2.051,0.42916 -2.854,1.11799 -0.7883,0.67613 -0.5375,2.13479 -1.7006,3.06916 0.2575,0.322 1.1171,2.02627 1.179,2.97464 0.03,0.39 0.013,1.59303 -0.354,1.995 -0.3679,0.40274 -1.7857,0.30877 -1.5812,-0.43319 0.4322,-1.56846 1.1676,-1.13191 -0.4828,-2.71581 -1.1183,-1.07318 -4.1857,-4.08832 -4.3392,-5.2894 -0.2674,-2.09315 -0.8263,-1.61137 -0.4059,-3.25007 0.1914,-0.74618 0.6481,-2.34853 1.1871,-3.06053 0.855,-1.13 0.7082,-1.44249 0.844,-2.86 0.1598,-1.669 0.1688,-3.88377 -0.9768,-5.5416 -0.4493,-0.65021 -1.799,0.24593 -3.0098,0.38739 -0.9839,0.11496 -2.4504,-0.16679 -2.4904,0.75221 -0.573,-0.62 -4.3723,-5.05784 -4.6024,-4.96518 -0.9819,0.39536 -3.0187,-1.78234 -2.7626,-2.57481 z"
       id="mw"
       style="fill:#e0e0e0;fill-opacity:1;stroke:#646464;stroke-width:0.50000000000000000;stroke-miterlimit:3.97446822999999980;stroke-opacity:1;stroke-dasharray:none" />
    <path
       class="land zw"
       d="m 1461.9363,913.67855 c 0.969,0.226 1.924,0.432 2.896,0.075 0.945,-0.347 1.403,1.062 2.01,1.453 0.669,0.431 1.8218,-0.62591 2.4688,-0.72591 0.835,-0.129 2.0842,0.81227 2.8072,1.12227 2.101,0.9 3.3619,-1.01646 4.493,-2.54236 1.51,-2.037 3.004,-3.94435 4.082,-5.759 0.5196,-0.8746 1.2384,-1.2225 2.015,-1.83318 1.0534,-0.82831 2.2129,-1.34731 3.478,-1.87382 2.4638,-1.0254 2.912,-1.32 3.056,-4.117 0.07,-1.371 2.366,-3.066 3.608,-3.558 1.165,-0.461 2.587,-1.095 3.841,-1.143 1.519,-0.059 3.051,0.422 4.558,0.04 0,2.863 -0.246,3.139 2.928,3.139 1.978,0 3.082,0.48739 5.03,1.27101 1.0856,0.4367 3.5886,1.89446 4.6087,2.44116 1.4765,0.79131 3.9496,0.45383 4.5393,1.70104 0.4349,0.91991 1.185,0.98779 2.055,0.72879 -0.225,1.33 -1.008,2.093 -0.384,3.465 0.732,1.612 -0.174,2.794 0.324,4.305 0.484,1.466 -0.61,3.097 -0.302,4.69 0.215,1.104 0.886,2.012 -0.093,2.889 -0.716,0.641 -0.061,2.141 -0.483,2.38 -1.032,0.582 -1.293,0.494 -1.693,1.787 -0.177,0.574 0.774,0.782 1.056,1.038 0.239,0.218 0.038,1.067 0,1.313 -0.097,0.588 -0.572,0.905 -0.736,1.448 -0.127,0.422 0.524,1.994 0.653,2.466 0.24,-0.097 0.479,-0.194 0.72,-0.29 -0.077,1.571 0.549,2.191 -0.401,3.787 -0.765,1.283 -1.258,3.413 -2.681,4.082 -1.556,0.731 -0.365,1.722 -0.658,2.932 -0.359,1.479 -1.51,2.337 -0.36,3.82 -1.195,-0.869 -6.6085,7.12655 -7.606,7.765 -0.9415,0.60264 -1.4218,1.9336 -1.8182,1.92435 -0.8471,-1.75635 -4.1943,-1.0277 -5.8856,-1.02337 -1.473,0.004 -2.827,-0.56673 -4.1946,-1.03879 -3.13,-1.08041 -4.0873,-0.30977 -4.2564,-0.51239 -0.8267,-0.99038 -0.9318,-0.50294 -1.8792,-1.0228 -1.0501,-0.57622 0,-1.505 -0.333,-1.94 -1.506,-1.95 -7.0937,-0.70093 -7.934,-2.756 -0.8205,-2.00661 -2.4203,-3.92329 -1.737,-5.926 0.9392,-2.75265 -0.413,-3.383 -3.166,-2.819 0.493,-2.603 -0.189,-3.664 -2.599,-4.38 -1.908,-0.566 -4.46,-2.699 -5.531,-4.364 -1.634,-2.538 -1.656,-5.712 -3.61,-8.176 -0.855,-1.075 -3.579,-4.827 -2.884,-6.262"
       id="zw"
       style="fill:#e0e0e0;fill-opacity:1;stroke:#646464;stroke-width:0.50000000000000000;stroke-miterlimit:3.97446822999999980;stroke-opacity:1;stroke-dasharray:none" />
    <path
       class="land sz"
       d="m 1500.9696,990.66205 c 0,0 0.1852,-0.004 0.1852,-0.004 0.955,0.943 0.8474,0.767 1.6204,1.741 0.667,0.842 0.748,1.2242 1.45,1.9182 0.88,0.872 2.8123,2.0846 4.3343,0.8506 0.666,-0.541 0.353,-0.5667 0.7684,-1.3779 l 0.9017,-1.761 1.2832,0.003 -0.03,-0.5114 c -1.5493,-6.1706 0.3573,-1.9945 -1.0955,-6.0064 -0.8061,-0.8589 -1.8345,-1.8048 -2.5643,-2.1349 l -2.4077,-0.0964 c -0.802,1.031 -1.4327,1.1483 -2.1487,2.2343 -0.411,0.622 -0.5684,1.1044 -0.7647,1.5343 -0.1964,0.43 -0.9649,3.1977 -1.5319,3.6097 z"
       id="sz"
       style="fill:#e0e0e0;fill-opacity:1;stroke:#646464;stroke-width:0.50000000000000000;stroke-miterlimit:3.97446822999999980;stroke-opacity:1;stroke-dasharray:none" />
    <g
       id="sh">
      <path
         class="land coast sh"
         d="m 1220.3311,908.35846 c 0.311,-0.488 0.338,-0.992 0.08,-1.512 -0.601,0.418 -0.627,1.032 -0.08,1.512"
         id="sh-"
         style="fill:#b9b9b9;fill-opacity:1;stroke:#ffffff;stroke-width:0.30000001;stroke-miterlimit:3.97446823;stroke-opacity:1;stroke-dasharray:none" />
      <path
         class="circle sh"
         d="m 1220.2648,912.28455 c 6.2404,0 6.2404,-9.36419 0,-9.36419 -6.2451,0 -6.2451,9.36419 0,9.36419"
         id="sh."
         style="opacity:0;fill:#b9b9b9;fill-opacity:1;stroke:#000000;stroke-width:0.5;stroke-miterlimit:3.97446823;stroke-opacity:1;stroke-dasharray:none" />
    </g>
    <text
       xml:space="preserve"
       style="font-size:25.08890915px;font-style:normal;font-weight:normal;fill:#000000;fill-opacity:1;stroke:none;font-family:Bitstream Vera Sans"
       x="1383.973"
       y="934.6441"
       id="text3172"><tspan
         sodipodi:role="line"
         id="tspan3174"
         x="1383.973"
         y="934.6441"
         style="font-size:7.52667284px">Nambia</tspan></text>
    <text
       xml:space="preserve"
       style="font-size:25.08890915px;font-style:normal;font-weight:normal;fill:#000000;fill-opacity:1;stroke:none;font-family:Bitstream Vera Sans"
       x="1432.7931"
       y="937.02551"
       id="text3176"><tspan
         sodipodi:role="line"
         id="tspan3178"
         x="1432.7931"
         y="937.02551"
         style="font-size:7.52667284px">Botswana</tspan></text>
    <text
       xml:space="preserve"
       style="font-size:25.08890915px;font-style:normal;font-weight:normal;fill:#000000;fill-opacity:1;stroke:none;font-family:Bitstream Vera Sans"
       x="1476.0563"
       y="925.91205"
       id="text3180"><tspan
         sodipodi:role="line"
         id="tspan3182"
         x="1476.0563"
         y="925.91205"
         style="font-size:7.52667284px">Zimbabwe</tspan></text>
    <text
       xml:space="preserve"
       style="font-size:25.08890915px;font-style:normal;font-weight:normal;fill:#000000;fill-opacity:1;stroke:none;font-family:Bitstream Vera Sans"
       x="1522.4949"
       y="919.16455"
       id="text3184"><tspan
         sodipodi:role="line"
         id="tspan3186"
         x="1522.4949"
         y="919.16455"
         style="font-size:7.52667284px">Mozambique</tspan></text>
    <text
       xml:space="preserve"
       style="font-size:25.08890915px;font-style:normal;font-weight:normal;fill:#000000;fill-opacity:1;stroke:none;font-family:Bitstream Vera Sans"
       x="1410.9629"
       y="1039.4285"
       id="text3188"><tspan
         sodipodi:role="line"
         id="tspan3190"
         x="1410.9629"
         y="1039.4285"
         style="font-size:7.52667284px">South Africa</tspan></text>
    <path
       style="fill:#ff00ff;stroke:#646464;stroke-width:1;stroke-linecap:butt;stroke-linejoin:round;stroke-miterlimit:4;stroke-opacity:1;stroke-dasharray:none;fill-opacity:0.70588237"
       d="m 556.23696,806.36119 c 12.02332,1.26562 36.70278,0 40.49962,2.53123 3.79684,2.53123 32.90594,6.96087 39.86681,5.69526 6.96087,-1.26561 43.03085,-3.16403 43.03085,-3.16403 0,0 12.65613,34.80436 12.65613,42.39804 0,7.59367 -1.89842,17.71858 -1.26561,22.14823 0.6328,4.42964 8.39428,6.2209 7.59367,10.75771 -1.89842,10.75771 -76.56959,56.31978 -91.12414,55.68698 -14.55455,-0.63281 -40.49962,-20.88262 -41.76523,-27.84349 -1.26561,-6.96087 3.16403,-77.2024 1.26561,-84.79608 -1.89842,-7.59368 -10.1249,-22.78104 -10.75771,-23.41385 z"
       id="path3192"
       transform="matrix(0.62722272,0,0,0.62722272,1079.9395,434.82968)"
       sodipodi:nodetypes="csscssssssc" />
    <text
       xml:space="preserve"
       style="font-size:25.08890915px;font-style:normal;font-weight:normal;text-align:center;text-anchor:middle;fill:#000000;fill-opacity:1;stroke:none;font-family:Bitstream Vera Sans"
       x="1473.3224"
       y="975.85571"
       id="text3966"><tspan
         sodipodi:role="line"
         id="tspan3968"
         x="1473.3224"
         y="975.85571"
         style="font-size:11.29000854px">Kaapvaal</tspan><tspan
         sodipodi:role="line"
         x="1473.3224"
         y="989.9682"
         id="tspan3970"
         style="font-size:11.29000854px">craton</tspan></text>
  </g>
</svg>
