<svg width="960" height="807" viewBox="1 1 960 807" xmlns="http://www.w3.org/2000/svg" xmlns:xlink="http://www.w3.org/1999/xlink" overflow="hidden"><defs><clipPath id="clip0"><path d="M-1-1 961-1 961 808-1 808Z" fill-rule="evenodd" clip-rule="evenodd"/></clipPath><clipPath id="clip1"><path d="M33 89 917 89 917 668 33 668Z" fill-rule="evenodd" clip-rule="evenodd"/></clipPath><clipPath id="clip2"><path d="M33 89 917 89 917 668 33 668Z" fill-rule="evenodd" clip-rule="evenodd"/></clipPath><clipPath id="clip3"><path d="M33 89 917 89 917 668 33 668Z" fill-rule="evenodd" clip-rule="evenodd"/></clipPath><clipPath id="clip4"><path d="M33 89 917 89 917 668 33 668Z" fill-rule="evenodd" clip-rule="evenodd"/></clipPath><clipPath id="clip5"><path d="M33 89 916 89 916 668 33 668Z" fill-rule="evenodd" clip-rule="evenodd"/></clipPath><clipPath id="clip6"><path d="M33 89 916 89 916 668 33 668Z" fill-rule="evenodd" clip-rule="evenodd"/></clipPath><clipPath id="clip7"><path d="M33 89 916 89 916 668 33 668Z" fill-rule="evenodd" clip-rule="evenodd"/></clipPath><clipPath id="clip8"><path d="M33 89 916 89 916 668 33 668Z" fill-rule="evenodd" clip-rule="evenodd"/></clipPath><clipPath id="clip9"><path d="M33 89 916 89 916 668 33 668Z" fill-rule="evenodd" clip-rule="evenodd"/></clipPath><clipPath id="clip10"><path d="M33 89 916 89 916 668 33 668Z" fill-rule="evenodd" clip-rule="evenodd"/></clipPath><clipPath id="clip11"><path d="M33 89 916 89 916 668 33 668Z" fill-rule="evenodd" clip-rule="evenodd"/></clipPath><clipPath id="clip12"><path d="M33 89 916 89 916 668 33 668Z" fill-rule="evenodd" clip-rule="evenodd"/></clipPath><clipPath id="clip13"><path d="M33 89 916 89 916 668 33 668Z" fill-rule="evenodd" clip-rule="evenodd"/></clipPath><clipPath id="clip14"><path d="M33 89 916 89 916 668 33 668Z" fill-rule="evenodd" clip-rule="evenodd"/></clipPath><clipPath id="clip15"><path d="M0 74 960 74 960 807 0 807Z" fill-rule="evenodd" clip-rule="evenodd"/></clipPath><clipPath id="clip16"><path d="M0 74 960 74 960 807 0 807Z" fill-rule="evenodd" clip-rule="evenodd"/></clipPath><clipPath id="clip17"><path d="M0 74 960 74 960 807 0 807Z" fill-rule="evenodd" clip-rule="evenodd"/></clipPath><clipPath id="clip18"><path d="M0 74 960 74 960 807 0 807Z" fill-rule="evenodd" clip-rule="evenodd"/></clipPath><clipPath id="clip19"><path d="M0 74 960 74 960 807 0 807Z" fill-rule="evenodd" clip-rule="evenodd"/></clipPath><clipPath id="clip20"><path d="M0 74 960 74 960 807 0 807Z" fill-rule="evenodd" clip-rule="evenodd"/></clipPath><clipPath id="clip21"><path d="M0 74 960 74 960 807 0 807Z" fill-rule="evenodd" clip-rule="evenodd"/></clipPath><clipPath id="clip22"><path d="M0 74 960 74 960 807 0 807Z" fill-rule="evenodd" clip-rule="evenodd"/></clipPath><clipPath id="clip23"><path d="M0 74 960 74 960 807 0 807Z" fill-rule="evenodd" clip-rule="evenodd"/></clipPath><clipPath id="clip24"><path d="M0 74 960 74 960 807 0 807Z" fill-rule="evenodd" clip-rule="evenodd"/></clipPath><clipPath id="clip25"><path d="M0 74 960 74 960 807 0 807Z" fill-rule="evenodd" clip-rule="evenodd"/></clipPath><clipPath id="clip26"><path d="M0 74 960 74 960 807 0 807Z" fill-rule="evenodd" clip-rule="evenodd"/></clipPath><clipPath id="clip27"><path d="M13-61 316-61 316 287 13 287Z" fill-rule="evenodd" clip-rule="evenodd"/></clipPath><clipPath id="clip28"><path d="M13-4 316-4 316 345 13 345Z" fill-rule="evenodd" clip-rule="evenodd"/></clipPath><clipPath id="clip29"><path d="M13 54 316 54 316 402 13 402Z" fill-rule="evenodd" clip-rule="evenodd"/></clipPath><clipPath id="clip30"><path d="M13 112 316 112 316 460 13 460Z" fill-rule="evenodd" clip-rule="evenodd"/></clipPath><clipPath id="clip31"><path d="M13 170 316 170 316 518 13 518Z" fill-rule="evenodd" clip-rule="evenodd"/></clipPath><clipPath id="clip32"><path d="M13 458 316 458 316 806 13 806Z" fill-rule="evenodd" clip-rule="evenodd"/></clipPath><clipPath id="clip33"><path d="M418 227 892 227 892 575 418 575Z" fill-rule="evenodd" clip-rule="evenodd"/></clipPath><clipPath id="clip34"><path d="M418 285 892 285 892 633 418 633Z" fill-rule="evenodd" clip-rule="evenodd"/></clipPath><clipPath id="clip35"><path d="M418 343 892 343 892 691 418 691Z" fill-rule="evenodd" clip-rule="evenodd"/></clipPath><clipPath id="clip36"><path d="M418 400 892 400 892 748 418 748Z" fill-rule="evenodd" clip-rule="evenodd"/></clipPath></defs><g clip-path="url(#clip0)" transform="translate(1 1)"><rect x="0" y="0" width="960" height="807" fill="#FFFFFF"/><g clip-path="url(#clip1)"><rect x="310.5" y="393.5" width="44" height="29" stroke="#000000" stroke-linejoin="round" stroke-miterlimit="10" fill="#1F77B4" fill-opacity="0.701961"/></g><g clip-path="url(#clip2)"><rect x="265.5" y="451.5" width="89" height="28" stroke="#000000" stroke-linejoin="round" stroke-miterlimit="10" fill="#1F77B4" fill-opacity="0.701961"/></g><g clip-path="url(#clip3)"><rect x="330.5" y="508.5" width="24" height="29" stroke="#000000" stroke-linejoin="round" stroke-miterlimit="10" fill="#1F77B4" fill-opacity="0.701961"/></g><g clip-path="url(#clip4)"><path d="M624.5 104.5 354.5 104.5 354.5 133.5 624.5 133.5ZM510.5 161.5 354.5 161.5 354.5 190.5 510.5 190.5ZM383.5 219.5 354.5 219.5 354.5 248.5 383.5 248.5ZM381.5 277.5 354.5 277.5 354.5 306.5 381.5 306.5ZM383.5 335.5 354.5 335.5 354.5 364.5 383.5 364.5ZM362.5 566.5 354.5 566.5 354.5 595.5 362.5 595.5ZM722.5 624.5 354.5 624.5 354.5 653.5 722.5 653.5Z" stroke="#000000" stroke-linejoin="round" stroke-miterlimit="10" fill="#B95B22" fill-opacity="0.701961"/></g><g clip-path="url(#clip5)"><path d="M624 119 568 119M624 119 680 119M568 116 568 122M680 116 680 122" stroke="#000000" stroke-width="4" stroke-linecap="round" stroke-linejoin="round" stroke-miterlimit="10" fill="none"/></g><g clip-path="url(#clip6)"><path d="M510 176 473 176M510 176 547 176M473 173 473 179M547 173 547 179" stroke="#000000" stroke-width="4" stroke-linecap="round" stroke-linejoin="round" stroke-miterlimit="10" fill="none"/></g><g clip-path="url(#clip7)"><path d="M383 234 356 234M383 234 411 234M356 231 356 237M411 231 411 237" stroke="#000000" stroke-width="4" stroke-linecap="round" stroke-linejoin="round" stroke-miterlimit="10" fill="none"/></g><g clip-path="url(#clip8)"><path d="M382 292 375 292M382 292 388 292M375 289 375 295M388 289 388 295" stroke="#000000" stroke-width="4" stroke-linecap="round" stroke-linejoin="round" stroke-miterlimit="10" fill="none"/></g><g clip-path="url(#clip9)"><path d="M383 350 333 350M383 350 431 350M333 347 333 353M431 347 431 353" stroke="#000000" stroke-width="4" stroke-linecap="round" stroke-linejoin="round" stroke-miterlimit="10" fill="none"/></g><g clip-path="url(#clip10)"><path d="M311 408 231 408M311 408 391 408M231 405 231 411M391 405 391 411" stroke="#000000" stroke-width="4" stroke-linecap="round" stroke-linejoin="round" stroke-miterlimit="10" fill="none"/></g><g clip-path="url(#clip11)"><path d="M266 465 141 465M266 465 345 465M141 462 141 468M345 462 345 468" stroke="#000000" stroke-width="4" stroke-linecap="round" stroke-linejoin="round" stroke-miterlimit="10" fill="none"/></g><g clip-path="url(#clip12)"><path d="M330 523 314 523M330 523 346 523M314 520 314 526M346 520 346 526" stroke="#000000" stroke-width="4" stroke-linecap="round" stroke-linejoin="round" stroke-miterlimit="10" fill="none"/></g><g clip-path="url(#clip13)"><path d="M362 581 354 581M362 581 370 581M354 578 354 584M370 578 370 584" stroke="#000000" stroke-width="4" stroke-linecap="round" stroke-linejoin="round" stroke-miterlimit="10" fill="none"/></g><g clip-path="url(#clip14)"><path d="M722 639 536 639M722 639 889 639M536 636 536 642M889 636 889 642" stroke="#000000" stroke-width="4" stroke-linecap="round" stroke-linejoin="round" stroke-miterlimit="10" fill="none"/></g><g clip-path="url(#clip15)"><path d="M33.5001 667.5 916.5 667.5" stroke="#000000" stroke-linejoin="round" stroke-miterlimit="10" fill="none" fill-rule="evenodd"/></g><g clip-path="url(#clip16)"><path d="M33.5001 667.5 33.5001 680.5M193.5 667.5 193.5 680.5M354.5 667.5 354.5 680.5M514.5 667.5 514.5 680.5M675.5 667.5 675.5 680.5M836.5 667.5 836.5 680.5" stroke="#000000" stroke-linejoin="round" stroke-miterlimit="10" fill="none"/></g><g clip-path="url(#clip17)"><path d="M354.5 89.5001 354.5 667.5" stroke="#000000" stroke-linejoin="round" stroke-miterlimit="10" fill="none" fill-rule="evenodd"/></g><g clip-path="url(#clip18)"><text font-family="Liberation Sans,sans-serif" font-weight="400" font-size="41" transform="translate(14.6667 730)">-2</text></g><g clip-path="url(#clip19)"><text font-family="Liberation Sans,sans-serif" font-weight="400" font-size="41" transform="translate(175.314 730)">-1</text></g><g clip-path="url(#clip20)"><text font-family="Liberation Sans,sans-serif" font-weight="400" font-size="41" transform="translate(342.845 730)">0</text></g><g clip-path="url(#clip21)"><text font-family="Liberation Sans,sans-serif" font-weight="400" font-size="41" transform="translate(503.492 730)">1</text></g><g clip-path="url(#clip22)"><text font-family="Liberation Sans,sans-serif" font-weight="400" font-size="41" transform="translate(664.139 730)">2</text></g><g clip-path="url(#clip23)"><text font-family="Liberation Sans,sans-serif" font-weight="400" font-size="41" transform="translate(824.786 730)">3</text></g><g clip-path="url(#clip24)"><text font-family="Liberation Sans,sans-serif" font-weight="400" font-size="41" transform="translate(251.257 782)">Radiative forcing (W/m</text></g><g clip-path="url(#clip25)"><text font-family="Liberation Sans,sans-serif" font-weight="400" font-size="28" transform="translate(669.297 770)">2</text></g><g clip-path="url(#clip26)"><text font-family="Liberation Sans,sans-serif" font-weight="400" font-size="41" transform="translate(684.623 782)">)</text></g><g><text font-family="Liberation Sans,sans-serif" font-weight="400" font-size="41" transform="translate(315 129)" text-anchor="end">Carbon dioxide</text></g><g clip-path="url(#clip28)"><text font-family="Liberation Sans,sans-serif" font-weight="400" font-size="41" transform="translate(315 187)" text-anchor="end">Methane</text></g><g clip-path="url(#clip29)"><text font-family="Liberation Sans,sans-serif" font-weight="400" font-size="41" transform="translate(315 244)" text-anchor="end">Halogens</text></g><g clip-path="url(#clip30)"><text font-family="Liberation Sans,sans-serif" font-weight="400" font-size="41" transform="translate(315 302)" text-anchor="end">Nitrous oxide</text></g><g clip-path="url(#clip31)"><text font-family="Liberation Sans,sans-serif" font-weight="400" font-size="41" transform="translate(315 360)" text-anchor="end">Other gases</text></g><g clip-path="url(#clip32)"><text font-family="Liberation Sans,sans-serif" font-weight="400" font-size="41" transform="translate(315 648)" text-anchor="end">Net human</text></g><g><text font-family="Liberation Sans,sans-serif" font-weight="400" font-size="41" transform="translate(419.105 418)">Aerosols (soot, dust, …)</text></g><g><text font-family="Liberation Sans,sans-serif" font-weight="400" font-size="41" transform="translate(419.105 475)">Aerosol cloud influence</text></g><g><text font-family="Liberation Sans,sans-serif" font-weight="400" font-size="41" transform="translate(419.105 533)">Land reflectivity change</text></g><g><text font-family="Liberation Sans,sans-serif" font-weight="400" font-size="41" transform="translate(419.105 591)">Sun (natural change)</text></g><text font-family="Liberation Sans,sans-serif" font-weight="400" font-size="41" transform="translate(163.676 60)">Physical drivers of climate change</text><rect x="14" y="657" width="111" height="90" fill="#FFFFFF"/></g></svg>