<svg xmlns="http://www.w3.org/2000/svg" version="1.1" style="font-family:Lato, &#x27;Helvetica Neue&#x27;, Helvetica, Arial, sans-serif;font-size:18px;background-color:white;text-rendering:optimizeLegibility;-webkit-font-smoothing:antialiased" width="850" height="600" viewBox="0 0 850 600"><g class="HeaderView"><g transform="translate(774, 15) scale(0.29)"><svg width="210" height="120" viewBox="0 0 210 120" fill="none" xmlns="http://www.w3.org/2000/svg">
<g clip-path="url(#clip0)">
  <path d="M0 0h210v107.89H0V0z" fill="#002147" />
  <path
    d="M40.98 32.25c0 2.36-.38 4.53-1.12 6.51a14.26 14.26 0 01-8.1 8.4c-1.9.78-4.02 1.17-6.34 1.17-2.31 0-4.42-.39-6.33-1.17a14.31 14.31 0 01-8.08-8.4 18.29 18.29 0 01-1.12-6.51c0-2.36.38-4.53 1.12-6.5.75-1.97 1.8-3.67 3.17-5.1 1.37-1.43 3-2.55 4.9-3.34 1.92-.8 4.03-1.19 6.34-1.19 2.32 0 4.43.4 6.34 1.19 1.92.8 3.56 1.9 4.93 3.34a14.87 14.87 0 013.17 5.1 18.1 18.1 0 011.12 6.5zm-4.38 0c0-1.94-.26-3.68-.8-5.22a10.91 10.91 0 00-2.24-3.89 9.68 9.68 0 00-3.52-2.46 11.95 11.95 0 00-4.62-.86c-1.68 0-3.21.28-4.6.86a9.88 9.88 0 00-3.54 2.46 10.91 10.91 0 00-2.24 3.9c-.53 1.53-.8 3.27-.8 5.2 0 1.94.27 3.68.8 5.22a11.17 11.17 0 002.24 3.9 10.01 10.01 0 003.55 2.44c1.38.56 2.9.83 4.6.83 1.7 0 3.24-.27 4.61-.83a9.8 9.8 0 003.52-2.44 11.17 11.17 0 002.25-3.9c.53-1.54.8-3.28.8-5.21zm26.22-6.54V48H60.5c-.56 0-.9-.27-1.05-.81l-.31-2.4a12.45 12.45 0 01-3.26 2.6c-1.2.64-2.58.96-4.13.96-1.22 0-2.3-.2-3.24-.6a6.52 6.52 0 01-2.33-1.7 7.37 7.37 0 01-1.43-2.67c-.3-1.04-.46-2.2-.46-3.45V25.7h3.91v14.22c0 1.68.38 2.99 1.15 3.91.77.93 1.96 1.39 3.54 1.39 1.16 0 2.24-.27 3.23-.82a10.42 10.42 0 002.8-2.28V25.7h3.91zm8.61 4.47a9.94 9.94 0 012.6-3.56 5.64 5.64 0 013.76-1.3c.47 0 .92.05 1.34.15.44.1.83.27 1.17.49L80 28.88c-.09.37-.3.55-.66.55-.2 0-.5-.04-.9-.13a6.21 6.21 0 00-3.24.18c-.54.2-1.03.5-1.47.92-.42.4-.81.9-1.17 1.5-.33.58-.64 1.26-.92 2.02V48h-3.94V25.71h2.25c.42 0 .72.08.88.25.16.16.27.44.33.83l.26 3.39zm61.16-13.7L122.75 48h-3.82l-7.99-24.05a21.95 21.95 0 01-.42-1.58 38.36 38.36 0 01-.44 1.58L102.05 48h-3.83L88.4 16.47h3.54c.38 0 .7.1.95.29.26.2.43.43.5.73l6.52 21.9c.1.4.2.83.28 1.28.1.46.2.94.29 1.46l.3-1.46c.12-.47.25-.9.38-1.27l7.41-21.91c.1-.25.26-.48.51-.69.27-.22.58-.33.95-.33h1.23c.38 0 .69.1.92.29.24.2.41.43.53.73l7.4 21.9a28.4 28.4 0 01.68 2.62 29.52 29.52 0 01.52-2.61l6.54-21.91c.07-.27.23-.5.48-.7.27-.21.58-.32.95-.32h3.32zm9.35 8.88c1.63 0 3.1.27 4.4.82a9.43 9.43 0 015.46 5.94c.5 1.4.74 2.98.74 4.73 0 1.76-.25 3.34-.74 4.75a9.43 9.43 0 01-5.46 5.92c-1.3.52-2.77.79-4.4.79-1.64 0-3.12-.27-4.44-.8a9.42 9.42 0 01-3.35-2.3c-.92-1-1.63-2.2-2.13-3.61-.49-1.41-.73-3-.73-4.75s.24-3.33.73-4.73c.5-1.43 1.2-2.64 2.13-3.63.93-1 2.04-1.77 3.35-2.31 1.32-.55 2.8-.82 4.44-.82zm0 19.89c2.2 0 3.84-.73 4.93-2.2 1.08-1.48 1.63-3.54 1.63-6.18 0-2.66-.55-4.72-1.63-6.2-1.09-1.49-2.73-2.23-4.93-2.23-1.12 0-2.09.2-2.93.57-.82.39-1.5.94-2.06 1.65-.55.72-.96 1.61-1.24 2.67-.26 1.04-.4 2.22-.4 3.54 0 2.64.55 4.7 1.64 6.18 1.1 1.47 2.76 2.2 4.99 2.2zm17.97-15.07a9.94 9.94 0 012.6-3.56 5.64 5.64 0 013.76-1.3c.47 0 .91.05 1.34.15.44.1.83.27 1.16.49l-.28 2.92c-.09.37-.31.55-.66.55-.2 0-.5-.04-.9-.13a6.2 6.2 0 00-3.24.18c-.54.2-1.03.5-1.47.92-.43.4-.82.9-1.17 1.5a13.1 13.1 0 00-.92 2.02V48h-3.94V25.71h2.24c.43 0 .72.08.88.25.17.16.28.44.33.83l.27 3.39zm15.04-14.59V48h-3.92V15.6h3.92zm19.55 15.43a6.22 6.22 0 00-2.38-2.05 6.7 6.7 0 00-2.86-.6c-2.07 0-3.66.75-4.77 2.23-1.12 1.48-1.68 3.6-1.68 6.33 0 1.46.13 2.7.38 3.74a7.29 7.29 0 001.1 2.56 4.35 4.35 0 001.78 1.45c.7.3 1.5.46 2.4.46 1.29 0 2.41-.3 3.36-.88a9.6 9.6 0 002.67-2.49V31.02zm3.91-15.43V48h-2.33c-.56 0-.9-.27-1.06-.81l-.35-2.71a12.13 12.13 0 01-3.25 2.77 8.28 8.28 0 01-4.23 1.06 7.31 7.31 0 01-6.14-2.9c-.73-.96-1.3-2.15-1.69-3.57a18.35 18.35 0 01.07-9.48 11.29 11.29 0 011.89-3.7 8.7 8.7 0 017.06-3.34 7.96 7.96 0 016.12 2.62V15.59h3.91zM46.61 70.71V93H42.7V70.71h3.91zm.84-7c0 .39-.08.75-.24 1.09-.15.32-.35.61-.62.88-.25.25-.55.44-.9.59a2.67 2.67 0 01-2.16 0 2.9 2.9 0 01-1.45-1.47 2.67 2.67 0 010-2.16c.15-.35.35-.65.6-.9.25-.27.53-.47.85-.62a2.67 2.67 0 012.16 0c.35.15.65.35.9.62.27.25.47.55.62.9.16.34.24.7.24 1.08zm7.97 10.24c.49-.54 1-1.04 1.54-1.48a9.85 9.85 0 013.66-1.84 8.96 8.96 0 015.43.35c.94.4 1.72.97 2.33 1.71.63.74 1.11 1.62 1.43 2.67.32 1.04.49 2.19.49 3.45V93h-3.94V78.81c0-1.69-.4-3-1.17-3.92-.76-.93-1.93-1.4-3.5-1.4-1.15 0-2.24.27-3.25.83-1 .56-1.92 1.31-2.77 2.27V93h-3.94V70.71h2.35c.56 0 .9.28 1.04.82l.3 2.42zm57.7 3.3c0 2.36-.37 4.5-1.11 6.44a14.3 14.3 0 01-3.17 4.98c-1.37 1.37-3 2.45-4.93 3.2-1.9.76-4.02 1.13-6.33 1.13H85.8V61.47h11.77c2.31 0 4.42.39 6.33 1.15a13.8 13.8 0 018.1 8.18 17.75 17.75 0 011.12 6.45zm-4.37 0c0-1.94-.26-3.67-.8-5.2a10.94 10.94 0 00-2.23-3.87 9.57 9.57 0 00-3.53-2.42 12.23 12.23 0 00-4.61-.83h-7.5v24.62h7.5c1.7 0 3.24-.28 4.61-.84a9.7 9.7 0 003.53-2.4 10.94 10.94 0 002.24-3.87c.53-1.53.8-3.26.8-5.2zm19.8 5.72c-1.8.06-3.34.2-4.62.44-1.26.22-2.3.51-3.1.88-.8.36-1.37.8-1.74 1.3-.35.5-.53 1.05-.53 1.67 0 .58.1 1.1.3 1.52a3 3 0 00.76 1.05c.34.27.73.46 1.17.6.45.11.94.17 1.45.17a7.28 7.28 0 003.5-.81 11.95 11.95 0 002.82-2.2v-4.62zm-12.65-9.11a12.73 12.73 0 013.98-2.66c1.43-.59 3-.88 4.73-.88 1.25 0 2.36.2 3.33.61a6.81 6.81 0 013.94 4.38c.33 1.04.5 2.19.5 3.43V93h-1.74a1.8 1.8 0 01-.88-.18c-.2-.13-.36-.38-.48-.74l-.44-2.12c-.59.55-1.16 1.03-1.72 1.46a9.48 9.48 0 01-3.74 1.7c-.69.15-1.46.23-2.3.23-.87 0-1.69-.12-2.45-.35a5.34 5.34 0 01-3.34-2.93 6.64 6.64 0 01-.49-2.64c0-.88.25-1.72.73-2.53a6.33 6.33 0 012.35-2.17c1.09-.63 2.5-1.15 4.25-1.54 1.75-.41 3.89-.65 6.42-.7v-1.75c0-1.73-.37-3.03-1.12-3.91-.75-.9-1.84-1.34-3.28-1.34-.97 0-1.78.12-2.44.37-.64.23-1.2.5-1.7.81l-1.23.82c-.33.23-.67.35-1 .35-.27 0-.5-.07-.69-.2a2.1 2.1 0 01-.48-.53l-.7-1.25zm27.67 19.5c-1.76 0-3.12-.5-4.07-1.48-.94-.98-1.41-2.4-1.41-4.25V74h-2.68a.9.9 0 01-.6-.2c-.16-.14-.24-.36-.24-.66v-1.56l3.65-.46.9-6.89c.05-.22.14-.4.29-.52a.88.88 0 01.62-.22H142v7.67h6.44V74h-6.44v13.38c0 .94.22 1.63.68 2.09.45.45 1.04.68 1.76.68a3.21 3.21 0 001.85-.53l.55-.35c.16-.12.3-.18.41-.18.2 0 .4.13.55.38l1.15 1.87a7.45 7.45 0 01-2.44 1.5c-.96.35-1.94.52-2.95.52zm19.68-10.4c-1.8.07-3.34.21-4.62.45-1.26.22-2.3.51-3.1.88-.8.36-1.37.8-1.74 1.3-.35.5-.53 1.05-.53 1.67 0 .58.1 1.1.3 1.52.18.42.44.77.76 1.05.34.27.73.46 1.17.6.45.11.94.17 1.45.17a7.3 7.3 0 003.5-.81 12.04 12.04 0 002.82-2.2v-4.62zm-12.65-9.1a12.72 12.72 0 013.99-2.66c1.42-.59 3-.88 4.72-.88 1.25 0 2.36.2 3.33.61a6.81 6.81 0 013.94 4.38c.33 1.04.5 2.19.5 3.43V93h-1.74a1.8 1.8 0 01-.88-.18c-.2-.13-.36-.38-.48-.74l-.44-2.12c-.59.55-1.16 1.03-1.72 1.46a9.48 9.48 0 01-3.74 1.7c-.69.15-1.46.23-2.3.23-.87 0-1.69-.12-2.45-.35a5.33 5.33 0 01-3.34-2.93 6.62 6.62 0 01-.49-2.64c0-.88.25-1.72.73-2.53a6.33 6.33 0 012.35-2.17c1.09-.63 2.5-1.15 4.25-1.54 1.74-.41 3.89-.65 6.42-.7v-1.75c0-1.73-.37-3.03-1.12-3.91-.75-.9-1.84-1.34-3.28-1.34-.97 0-1.78.12-2.44.37-.64.23-1.2.5-1.7.81-.46.3-.87.57-1.22.82-.34.23-.68.35-1.02.35-.26 0-.49-.07-.68-.2-.19-.14-.35-.32-.48-.53l-.7-1.25z"
    fill="#fff"
  />
  <path fill="#D42B21" d="M0 106.79h210V120H0z" />
</g>
<defs>
  <clipPath id="clip0"><path fill="#fff" d="M0 0h210v120H0z" /></clipPath>
</defs>
</svg></g><a href="https://ourworldindata.org/grapher/female-labor-force-participation-OECD?time=1980&amp;country=CAN~USA~ESP~DEU~FRA~GBR~RUS~PRT~MEX~JPN~NOR~Korea~ITA~GRC~AUS" style="font-family:&quot;Playfair Display&quot;, Georgia, &quot;Times New Roman&quot;, serif" target="_blank"><text font-size="21.60" x="15.0" y="32.3" fill="#555"><tspan x="15" y="32.279999999999994">Long-run perspective on female labor force participation rates, 1890 to</tspan><tspan x="15" y="53.87999999999999">2016</tspan></text></a><text font-size="14.40" x="15.0" y="74.7" fill="#666"><tspan x="15" y="74.72">Proportion of the female population ages 15 and over that is economically active. Data is available for OECD member</tspan><tspan x="15" y="92">countries, as well as for non-member countries publishing statistics in OECD.stats.</tspan></text></g><g class="LineChart"><defs><clipPath id="boundsClip-2"><rect x="42.562" y="0" width="830" height="835.8000000000001"></rect></clipPath></defs><g class="DualAxisView"><g class="HorizontalAxis"><line x1="52.6" y1="507.90000000000003" x2="52.6" y2="511.90000000000003" stroke="#ccc"></line><line x1="104.2" y1="507.90000000000003" x2="104.2" y2="511.90000000000003" stroke="#ccc"></line><line x1="207.6" y1="507.90000000000003" x2="207.6" y2="511.90000000000003" stroke="#ccc"></line><line x1="310.9" y1="507.90000000000003" x2="310.9" y2="511.90000000000003" stroke="#ccc"></line><line x1="414.3" y1="507.90000000000003" x2="414.3" y2="511.90000000000003" stroke="#ccc"></line><line x1="517.6" y1="507.90000000000003" x2="517.6" y2="511.90000000000003" stroke="#ccc"></line><line x1="620.9" y1="507.90000000000003" x2="620.9" y2="511.90000000000003" stroke="#ccc"></line><line x1="703.6" y1="507.90000000000003" x2="703.6" y2="511.90000000000003" stroke="#ccc"></line><text x="52.6" y="529.1" fill="#666" text-anchor="middle" font-size="16.2">1890</text><text x="104.2" y="529.1" fill="#666" text-anchor="middle" font-size="16.2">1900</text><text x="207.6" y="529.1" fill="#666" text-anchor="middle" font-size="16.2">1920</text><text x="310.9" y="529.1" fill="#666" text-anchor="middle" font-size="16.2">1940</text><text x="414.3" y="529.1" fill="#666" text-anchor="middle" font-size="16.2">1960</text><text x="517.6" y="529.1" fill="#666" text-anchor="middle" font-size="16.2">1980</text><text x="620.9" y="529.1" fill="#666" text-anchor="middle" font-size="16.2">2000</text><text x="703.6" y="529.1" fill="#666" text-anchor="middle" font-size="16.2">2016</text></g><g class="VerticalAxis"><text x="47.56" y="507.9" fill="#666" dominant-baseline="middle" text-anchor="end" font-size="16.2">0%</text><text x="47.56" y="451.8" fill="#666" dominant-baseline="middle" text-anchor="end" font-size="16.2">10%</text><text x="47.56" y="395.7" fill="#666" dominant-baseline="middle" text-anchor="end" font-size="16.2">20%</text><text x="47.56" y="339.6" fill="#666" dominant-baseline="middle" text-anchor="end" font-size="16.2">30%</text><text x="47.56" y="283.5" fill="#666" dominant-baseline="middle" text-anchor="end" font-size="16.2">40%</text><text x="47.56" y="227.4" fill="#666" dominant-baseline="middle" text-anchor="end" font-size="16.2">50%</text><text x="47.56" y="171.3" fill="#666" dominant-baseline="middle" text-anchor="end" font-size="16.2">60%</text><text x="47.56" y="115.2" fill="#666" dominant-baseline="middle" text-anchor="end" font-size="16.2">70%</text></g><g class="AxisGridLines horizontalLines"><line x1="52.56" y1="507.9" x2="703.61" y2="507.9" stroke="#ccc"></line><line x1="52.56" y1="451.8" x2="703.61" y2="451.8" stroke="#d3d3d3" stroke-dasharray="3,2"></line><line x1="52.56" y1="395.7" x2="703.61" y2="395.7" stroke="#d3d3d3" stroke-dasharray="3,2"></line><line x1="52.56" y1="339.6" x2="703.61" y2="339.6" stroke="#d3d3d3" stroke-dasharray="3,2"></line><line x1="52.56" y1="283.5" x2="703.61" y2="283.5" stroke="#d3d3d3" stroke-dasharray="3,2"></line><line x1="52.56" y1="227.4" x2="703.61" y2="227.4" stroke="#d3d3d3" stroke-dasharray="3,2"></line><line x1="52.56" y1="171.3" x2="703.61" y2="171.3" stroke="#d3d3d3" stroke-dasharray="3,2"></line><line x1="52.56" y1="115.2" x2="703.61" y2="115.2" stroke="#d3d3d3" stroke-dasharray="3,2"></line></g></g><g clip-path="url(#boundsClip-2)"><g class="LineLabels" style="cursor:pointer"><g class="legendMark"><g class="indicator"><path d="M707.61,128 H722.3372727272728 V117.94999999999999 H734.61" stroke="#999" stroke-width="0.5" fill="none"></path></g><rect x="703.61" y="111.19999999999999" width="80.765" height="13.5" fill="#fff" opacity="0"></rect><text font-size="13.50" x="738.6" y="122.0" fill="#C45267"><tspan x="738.61" y="121.99999999999999">Norway</tspan></text></g><g class="legendMark"><g class="indicator"><path d="M707.61,149.9 H724.7918181818183 V133.45 H734.61" stroke="#999" stroke-width="0.5" fill="none"></path></g><rect x="703.61" y="126.69999999999999" width="76.31" height="13.5" fill="#fff" opacity="0"></rect><text font-size="13.50" x="738.6" y="137.5" fill="#9A5129"><tspan x="738.61" y="137.5">Russia</tspan></text></g><g class="legendMark"><g class="indicator"><path d="M707.61,164.1 H727.2463636363636 V148.95 H734.61" stroke="#999" stroke-width="0.5" fill="none"></path></g><rect x="703.61" y="142.2" width="82.52000000000001" height="13.5" fill="#fff" opacity="0"></rect><text font-size="13.50" x="738.6" y="153.0" fill="#0F739C"><tspan x="738.61" y="153">Canada</tspan></text></g><g class="legendMark"><g class="indicator"><path d="M707.61,175.6 H729.7009090909091 V164.45 H734.61" stroke="#999" stroke-width="0.5" fill="none"></path></g><rect x="703.61" y="157.7" width="87.65" height="13.5" fill="#fff" opacity="0"></rect><text font-size="13.50" x="738.6" y="168.5" fill="#CD2285"><tspan x="738.61" y="168.5">Australia</tspan></text></g><g class="legendMark"><g class="indicator"><path d="M707.61,182.7 H732.1554545454546 V179.95 H734.61" stroke="#999" stroke-width="0.5" fill="none"></path></g><rect x="703.61" y="173.2" width="131.39" height="13.5" fill="#fff" opacity="0"></rect><text font-size="13.50" x="738.6" y="184.0" fill="#287669"><tspan x="738.61" y="184">United Kingdom</tspan></text></g><g class="legendMark"><g class="indicator"><path d="M707.61,189.2 H732.1554545454546 V195.45 H734.61" stroke="#999" stroke-width="0.5" fill="none"></path></g><rect x="703.61" y="188.7" width="116.405" height="13.5" fill="#fff" opacity="0"></rect><text font-size="13.50" x="738.6" y="199.5" fill="#D73C50"><tspan x="738.61" y="199.5">United States</tspan></text></g><g class="legendMark"><g class="indicator"><path d="M707.61,196.1 H729.7009090909091 V210.95 H734.61" stroke="#999" stroke-width="0.5" fill="none"></path></g><rect x="703.61" y="204.2" width="90.62" height="13.5" fill="#fff" opacity="0"></rect><text font-size="13.50" x="738.6" y="215.0" fill="#C05917"><tspan x="738.61" y="215">Germany</tspan></text></g><g class="legendMark"><g class="indicator"><path d="M707.61,207 H727.2463636363636 V226.45 H734.61" stroke="#999" stroke-width="0.5" fill="none"></path></g><rect x="703.61" y="219.7" width="69.695" height="13.5" fill="#fff" opacity="0"></rect><text font-size="13.50" x="738.6" y="230.5" fill="#4C6A9C"><tspan x="738.61" y="230.5">Spain</tspan></text></g><g class="legendMark"><g class="indicator"><path d="M707.61,207.7 H724.7918181818183 V241.95 H734.61" stroke="#999" stroke-width="0.5" fill="none"></path></g><rect x="703.61" y="235.2" width="85.49000000000001" height="13.5" fill="#fff" opacity="0"></rect><text font-size="13.50" x="738.6" y="246.0" fill="#00823F"><tspan x="738.61" y="246">Portugal</tspan></text></g><g class="legendMark"><g class="indicator"><path d="M707.61,215.7 H722.3372727272728 V257.45 H734.61" stroke="#999" stroke-width="0.5" fill="none"></path></g><rect x="703.61" y="250.7" width="71.18" height="13.5" fill="#fff" opacity="0"></rect><text font-size="13.50" x="738.6" y="261.5" fill="#883039"><tspan x="738.61" y="261.5">Korea</tspan></text></g><g class="legendMark"><g class="indicator"><path d="M707.61,217.8 H719.8827272727274 V272.95 H734.61" stroke="#999" stroke-width="0.5" fill="none"></path></g><rect x="703.61" y="266.2" width="77.12" height="13.5" fill="#fff" opacity="0"></rect><text font-size="13.50" x="738.6" y="277.0" fill="#CF0A66"><tspan x="738.61" y="277">France</tspan></text></g><g class="legendMark"><g class="indicator"><path d="M707.61,225.4 H717.4281818181819 V288.45 H734.61" stroke="#999" stroke-width="0.5" fill="none"></path></g><rect x="703.61" y="281.7" width="71.99000000000001" height="13.5" fill="#fff" opacity="0"></rect><text font-size="13.50" x="738.6" y="292.5" fill="#6D3E91"><tspan x="738.61" y="292.5">Japan</tspan></text></g><g class="legendMark"><g class="indicator"><path d="M707.61,255.4 H714.9736363636364 V303.95 H734.61" stroke="#999" stroke-width="0.5" fill="none"></path></g><rect x="703.61" y="297.2" width="79.415" height="13.5" fill="#fff" opacity="0"></rect><text font-size="13.50" x="738.6" y="308.0" fill="#00847E"><tspan x="738.61" y="308">Greece</tspan></text></g><g class="legendMark"><g class="indicator"><path d="M707.61,264.4 H712.519090909091 V319.45 H734.61" stroke="#999" stroke-width="0.5" fill="none"></path></g><rect x="703.61" y="312.7" width="77.795" height="13.5" fill="#fff" opacity="0"></rect><text font-size="13.50" x="738.6" y="323.5" fill="#B13507"><tspan x="738.61" y="323.5">Mexico</tspan></text></g><g class="legendMark"><g class="indicator"><path d="M707.61,281 H710.0645454545455 V334.95 H734.61" stroke="#999" stroke-width="0.5" fill="none"></path></g><rect x="703.61" y="328.2" width="59.84" height="13.5" fill="#fff" opacity="0"></rect><text font-size="13.50" x="738.6" y="339.0" fill="#3C4E66"><tspan x="738.61" y="339">Italy</tspan></text></g></g><g class="Lines"><rect x="53" y="111" width="651" height="397" fill="rgba(255,255,255,0)" opacity="0"></rect><g class="key-Canada_0"><path stroke="#0F739C" stroke-linecap="round" d="M161 419L213 411L264 401L316 383L368 376L497 252L502 247L507 239L512 231L518 224L523 216L528 216L533 211L538 206L543 200L549 196L554 191L559 186L564 182L569 180L574 180L580 183L585 184L590 185L595 185L600 186L605 184L611 180L616 178L621 175L626 173L631 166L636 161L642 160L647 162L652 161L657 157L662 157L667 158L673 158L678 159L683 159L688 159L693 163L698 165L704 164" fill="none" stroke-width="1.5"></path></g><g class="key-United-States_0"><path stroke="#D73C50" stroke-linecap="round" d="M53 404L104 394L156 380L208 377L259 372L311 365L363 348L414 281L419 278L425 279L430 295L435 293L440 290L445 284L450 278L456 274L461 268L466 265L471 265L476 262L481 257L487 252L492 248L497 243L502 236L507 228L512 222L518 219L523 216L528 213L533 211L538 207L543 202L549 198L554 194L559 191L564 186L569 185L574 186L580 184L585 183L590 178L595 177L600 176L605 173L611 172L616 171L621 172L626 173L631 173L636 174L642 176L647 176L652 175L657 175L662 174L667 176L673 179L678 182L683 184L688 187L693 188L698 190L704 189" fill="none" stroke-width="1.5"></path></g><g class="key-Spain_0"><path stroke="#4C6A9C" stroke-linecap="round" d="M476 361L481 348L487 348L492 353L497 347L502 350L507 351L512 351L518 352L523 354L528 351L533 348L538 347L543 347L549 345L554 329L559 320L564 319L569 316L574 313L580 309L585 305L590 300L595 297L600 294L605 290L611 288L616 284L621 276L626 282L631 268L636 259L642 251L647 244L652 236L657 230L662 222L667 216L673 212L678 208L683 205L688 205L693 207L698 207L704 207" fill="none" stroke-width="1.5"></path></g><g class="key-Germany_0"><path stroke="#C05917" stroke-linecap="round" d="M78 305L140 261L233 252L275 263L306 249L342 295L363 287L466 292L471 290L476 288L481 285L487 284L492 284L497 285L502 285L507 284L512 282L518 280L523 277L528 277L533 278L538 280L543 277L549 276L554 275L559 272L564 269L569 265L574 240L580 242L585 243L590 244L595 244L600 242L605 240L611 238L616 233L621 233L626 231L631 231L636 230L642 228L647 221L652 216L657 214L662 213L667 211L673 210L678 205L683 205L688 202L693 201L698 201L704 196" fill="none" stroke-width="1.5"></path></g><g class="key-France_0"><path stroke="#CF0A66" stroke-linecap="round" d="M456 287L461 285L466 286L471 287L476 283L481 280L487 276L492 272L497 269L502 264L507 265L512 260L518 259L523 258L528 256L533 256L538 254L543 254L549 251L554 251L559 252L564 251L569 251L574 250L580 248L585 245L590 244L595 243L600 241L605 243L611 241L616 239L621 238L626 237L631 236L636 227L642 226L647 225L652 224L657 222L662 221L667 219L673 219L678 220L683 219L688 218L693 217L698 218L704 218" fill="none" stroke-width="1.5"></path></g><g class="key-United-Kingdom_0"><path stroke="#287669" stroke-linecap="round" d="M213 327L264 316L368 313L419 298L471 268L523 252L538 232L543 230L549 225L554 222L559 218L564 211L569 209L574 209L580 210L585 210L590 210L595 210L600 208L605 205L611 205L616 202L621 200L626 200L631 197L636 198L642 196L647 194L652 190L657 193L662 191L667 191L673 190L678 190L683 189L688 187L693 185L698 185L704 183" fill="none" stroke-width="1.5"></path></g><g class="key-Russia_0"><path stroke="#9A5129" stroke-linecap="round" d="M580 149L585 163L590 177L595 181L600 187L605 194L611 199L616 173L621 171L626 177L631 171L636 171L642 167L647 163L652 160L657 158L662 159L667 157L673 159L678 155L683 153L688 154L693 153L698 152L704 150" fill="none" stroke-width="1.5"></path></g><g class="key-Portugal_0"><path stroke="#00823F" stroke-linecap="round" d="M487 269L492 271L497 271L502 265L507 265L512 256L518 256L523 249L528 255L533 237L538 245L543 251L549 252L554 249L559 245L564 243L569 238L574 227L580 231L585 232L590 230L595 231L600 232L605 231L611 217L616 215L621 211L626 208L631 204L636 202L642 202L647 198L652 196L657 194L662 195L667 196L673 195L678 201L683 201L688 204L693 206L698 206L704 208" fill="none" stroke-width="1.5"></path></g><g class="key-Mexico_0"><path stroke="#B13507" stroke-linecap="round" d="M574 317L580 313L585 307L590 304L595 297L600 297L605 286L611 287L616 293L621 290L626 295L631 291L636 294L642 281L647 278L652 272L657 270L662 271L667 268L673 269L678 268L683 262L688 262L693 266L698 265L704 264" fill="none" stroke-width="1.5"></path></g><g class="key-Japan_0"><path stroke="#6D3E91" stroke-linecap="round" d="M456 224L461 227L466 228L471 234L476 240L481 237L487 247L492 251L497 251L502 246L507 242L512 241L518 241L523 241L528 238L533 233L538 234L543 235L549 235L554 235L559 234L564 230L569 227L574 224L580 223L585 226L590 226L595 228L600 227L605 225L611 227L616 230L621 231L626 232L631 236L636 237L642 237L647 237L652 236L657 236L662 237L667 236L673 236L678 237L683 238L688 234L693 232L698 230L704 225" fill="none" stroke-width="1.5"></path></g><g class="key-Norway_0"><path stroke="#C45267" stroke-linecap="round" d="M476 257L481 256L487 259L492 247L497 228L502 222L507 214L512 207L518 197L523 190L528 193L533 181L538 180L543 171L549 154L554 147L559 150L564 158L569 158L574 158L580 159L585 159L590 156L595 149L600 139L605 131L611 126L616 124L621 122L626 120L631 117L636 121L642 122L647 123L652 125L657 118L662 111L667 116L673 122L678 123L683 123L688 124L693 125L698 125L704 128" fill="none" stroke-width="1.5"></path></g><g class="key-Korea_0"><path stroke="#883039" stroke-linecap="round" d="M518 268L523 271L528 264L533 268L538 280L543 273L549 266L554 256L559 255L564 247L569 244L574 244L580 244L585 244L590 240L595 237L600 234L605 229L611 244L616 241L621 234L626 231L631 228L636 233L642 228L647 227L652 226L657 226L662 227L667 232L673 231L678 229L683 228L688 226L693 220L698 217L704 216" fill="none" stroke-width="1.5"></path></g><g class="key-Italy_0"><path stroke="#3C4E66" stroke-linecap="round" d="M466 369L471 370L476 374L481 371L487 369L492 367L497 365L502 334L507 334L512 330L518 327L523 326L528 317L533 324L538 321L543 319L549 315L554 312L559 311L564 310L569 307L574 307L580 306L585 320L590 321L595 320L600 318L605 317L611 313L616 310L621 307L626 304L631 302L636 300L642 292L647 294L652 294L657 295L662 291L667 293L673 294L678 293L683 285L688 285L693 283L698 285L704 281" fill="none" stroke-width="1.5"></path></g><g class="key-Greece_0"><path stroke="#00847E" stroke-linecap="round" d="M533 319L538 317L543 313L549 314L554 314L559 307L564 307L569 309L574 322L580 316L585 313L590 312L595 309L600 303L605 305L611 290L616 288L621 282L626 287L631 283L636 279L642 272L647 272L652 270L657 270L662 270L667 264L673 261L678 262L683 261L688 263L693 261L698 257L704 255" fill="none" stroke-width="1.5"></path></g><g class="key-Australia_0"><path stroke="#CD2285" stroke-linecap="round" d="M445 304L450 299L456 297L461 294L466 286L471 284L476 280L481 276L487 271L492 267L497 267L502 260L507 263L512 263L518 257L523 257L528 258L533 257L538 254L543 248L549 237L554 233L559 228L564 221L569 215L574 216L580 217L585 218L590 213L595 207L600 206L605 207L611 207L616 207L621 202L626 199L631 198L636 194L642 196L647 188L652 185L657 182L662 179L667 178L673 179L678 178L683 178L688 179L693 179L698 177L704 176" fill="none" stroke-width="1.5"></path></g></g></g></g><g class="SourcesFooter" style="fill:#777"><g class="clickable" style="fill:#777"><text font-size="12.60" x="15.0" y="554.2"><tspan x="15" y="554.1800000000001">Source: Our World In Data based on OECD (2017) and Long (1958)</tspan></text></g><text font-size="12.60" x="15.0" y="568.8"><tspan x="15" y="568.7800000000001">Note: For some observations prior 1960, the participation rate is taken with respect to the female population 14 and over. See sources for</tspan><tspan x="15" y="582.6400000000001">details.</tspan></text><text font-size="12.60" x="796.4" y="554.2"><tspan x="796.444" y="554.1800000000001"><a style="fill: #777;" class="cclogo" href="http://creativecommons.org/licenses/by/4.0/deed.en_US" target="_blank">CC BY</a></tspan></text></g></svg>